<?xml version="1.0" encoding="UTF-8"?>
<!DOCTYPE svg PUBLIC "-//W3C//DTD SVG 1.1//EN" "http://www.w3.org/Graphics/SVG/1.1/DTD/svg11.dtd">
<!-- Creator: CorelDRAW X7 -->
<svg xmlns="http://www.w3.org/2000/svg" xml:space="preserve" width="10.8551cm" height="2.85495cm" version="1.1" style="shape-rendering:geometricPrecision; text-rendering:geometricPrecision; image-rendering:optimizeQuality; fill-rule:evenodd; clip-rule:evenodd"
viewBox="0 0 4953 1303"
 xmlns:xlink="http://www.w3.org/1999/xlink">
 <defs>
  <style type="text/css">
   <![CDATA[
    .fil0 {fill:#D2D3D5}
    .fil1 {fill:black}
    .fil10 {fill:#007445}
    .fil9 {fill:#014083}
    .fil4 {fill:#0A689E}
    .fil7 {fill:#5D236D}
    .fil3 {fill:#913672}
    .fil12 {fill:#9900CC}
    .fil6 {fill:#E10A15}
    .fil8 {fill:#FC7E41}
    .fil5 {fill:#FFF100}
    .fil2 {fill:white}
    .fil11 {fill:#373435;fill-rule:nonzero}
    .fil13 {fill:white;fill-rule:nonzero}
   ]]>
  </style>
 </defs>
 <rect class="fil0" x="-10353" y="2216" width="9852" height="12749"/>
 <g id="Layer_x0020_1">
  <metadata id="CorelCorpID_0Corel-Layer"/>
  <g id="_2251064313168">
   <path class="fil1" d="M0 413l0 31c0,1 2,21 2,24 1,20 6,49 11,67 22,79 59,143 114,198 2,2 4,4 6,6 1,1 2,2 4,3 1,1 2,3 3,3l21 18c17,14 34,26 54,37 22,13 46,24 71,33 13,4 26,8 40,12 19,5 46,9 67,11 3,0 23,1 24,1l24 0c1,0 21,-1 24,-1 50,-4 100,-18 144,-39 27,-12 52,-27 74,-43 8,-6 14,-12 22,-17l20 -19c20,-19 39,-40 54,-63 18,-26 25,-37 39,-66 17,-36 29,-80 35,-121 1,-8 2,-16 3,-24 0,-3 1,-24 1,-25l0 -21c0,-1 -1,-21 -1,-25 -4,-51 -17,-97 -38,-144 -4,-9 -9,-17 -13,-26 -2,-3 -4,-6 -5,-8 -7,-13 -15,-24 -23,-36l-26 -32c0,-1 -1,-2 -1,-2 -6,-7 -18,-20 -24,-25 -2,-2 -4,-4 -7,-6l-10 -10c-1,-1 -2,-2 -3,-3 -3,-1 -5,-3 -8,-5l-22 -17c-22,-16 -41,-26 -65,-38 -12,-6 -25,-11 -37,-16 -33,-12 -72,-20 -107,-23 -3,-1 -22,-1 -24,-2l-30 0c-1,1 -20,1 -24,2 -35,3 -73,11 -106,23 -24,9 -48,20 -70,33 -19,12 -26,17 -43,29 -5,3 -12,10 -18,14 -5,4 -9,8 -13,12l-7 6c-42,40 -78,92 -100,146 -9,22 -12,34 -19,58 -4,13 -6,29 -8,43 -2,8 -2,15 -3,23 0,4 -1,23 -2,24z"/>
   <path class="fil2" d="M415 11c-49,2 -86,9 -131,25 -20,7 -52,22 -71,34 -20,13 -35,23 -53,38 -24,20 -45,42 -64,67 -2,3 -4,5 -6,7 -3,5 -7,10 -10,16 -48,73 -72,152 -70,244 2,43 11,92 26,131 5,13 10,26 16,37 11,22 15,29 28,50 9,13 18,25 28,37l6 7c3,3 10,12 13,14l23 23c6,6 25,20 32,26 73,54 170,83 260,80 64,-3 118,-17 168,-41 24,-12 60,-33 80,-51 5,-4 13,-10 18,-15 2,-2 7,-6 10,-9l20 -20c2,-2 4,-5 6,-7 4,-5 8,-9 12,-14 8,-11 14,-19 22,-31 13,-20 26,-43 36,-68 47,-109 43,-237 -8,-344 -6,-12 -12,-23 -19,-34 -5,-9 -14,-23 -21,-31 -3,-4 -8,-11 -11,-15l-9 -11c0,0 -1,-1 -1,-1l-14 -16c-3,-2 -5,-4 -7,-6 -2,-3 -4,-5 -6,-7l-21 -18c-1,-1 -3,-2 -4,-3l-18 -15c-14,-10 -25,-17 -40,-25l-17 -9c-8,-4 -18,-10 -27,-13 -6,-2 -12,-5 -18,-7 -49,-18 -105,-28 -158,-25z"/>
   <path class="fil3" d="M332 803l-13 -19c-27,-40 -57,-104 -71,-151 -11,-38 -17,-61 -24,-102 -8,-44 -11,-85 -11,-130 -1,1 -7,12 -8,14 -3,4 -6,9 -8,14 -36,64 -77,159 -80,232 0,5 0,4 4,8 1,2 3,4 5,6 3,5 6,8 10,12 1,2 1,2 2,3 5,6 17,17 23,22 1,1 1,2 3,3l6 5c16,14 33,26 52,37 4,3 9,6 14,8 9,6 19,10 29,15 10,5 21,9 32,13 6,2 29,10 35,10z"/>
   <path class="fil4" d="M561 601c3,0 28,-7 33,-9 42,-12 85,-28 124,-46 25,-12 59,-32 80,-49 3,-2 15,-12 17,-15 3,-3 4,-44 4,-50 0,-55 -14,-107 -35,-157 -2,-5 -4,-10 -7,-15 -2,-4 -13,-25 -15,-27 -1,2 -2,12 -3,14 -5,31 -17,69 -28,97 -19,50 -44,97 -73,140 -15,22 -30,42 -46,62l-29 33 -22 22z"/>
   <path class="fil5" d="M233 95c2,1 12,3 15,3 10,2 33,8 43,10 39,12 67,22 103,39 13,7 33,17 46,25 8,5 15,9 22,13 8,5 25,16 32,21 11,8 20,14 31,23 8,6 22,17 30,24l7 6c1,1 1,2 2,2 7,6 21,19 28,26 2,2 7,8 9,9 -1,-6 -7,-27 -9,-34 -3,-11 -7,-21 -10,-32 -7,-22 -15,-42 -23,-62 -16,-38 -38,-78 -62,-109 -3,-4 -6,-8 -10,-12 -6,-7 -6,-6 -14,-7 -58,-7 -129,5 -183,27 -18,8 -33,14 -50,24l-6 3c0,1 -1,1 -1,1l0 0z"/>
   <path class="fil6" d="M95 625c0,-1 5,-26 6,-29 2,-10 5,-20 7,-29 16,-54 36,-102 64,-150 23,-40 58,-90 89,-124l9 -9c0,-1 1,-1 2,-2l6 -7c3,-3 6,-6 9,-9 3,-3 7,-6 9,-10 -6,1 -27,7 -34,9 -52,15 -104,36 -152,62 -4,2 -9,5 -13,7 -5,3 -9,6 -13,9 -11,6 -21,14 -31,22 -2,1 -10,9 -11,10 -1,2 -1,7 -2,10 -8,73 9,147 40,212 3,5 12,24 15,28z"/>
   <path class="fil7" d="M624 762l-29 -6c-49,-11 -87,-25 -132,-46 -30,-14 -63,-34 -90,-52 -7,-5 -14,-10 -21,-15 -15,-10 -31,-24 -45,-35l-17 -15c-1,0 -1,-1 -2,-2 -8,-7 -20,-18 -27,-26l-5 -4c0,5 17,60 19,66 8,24 14,39 23,62 11,26 29,61 44,84 3,5 10,15 13,19 6,7 14,18 20,23 3,3 43,4 49,4 52,0 96,-11 143,-29 10,-4 20,-8 30,-13 7,-3 14,-7 21,-11 1,0 6,-3 6,-4z"/>
   <path class="fil8" d="M54 332l20 -13c95,-62 207,-95 320,-104 10,-1 21,-1 31,-1 6,-1 11,-1 16,-1 5,0 12,1 16,0l-28 -16c-9,-5 -19,-10 -29,-15 -20,-10 -41,-20 -62,-29 -22,-8 -43,-16 -67,-23 -23,-6 -52,-13 -77,-13 -4,0 -23,18 -25,20 -6,5 -11,11 -17,16 -2,2 -3,4 -5,6l-10 11c-23,26 -46,65 -60,96 -6,14 -14,33 -18,48 -1,4 -5,14 -5,18z"/>
   <path class="fil9" d="M420 644l-19 0c1,1 5,3 6,4 34,20 76,41 111,56 36,14 64,23 102,31 15,3 29,5 44,5 1,0 2,-1 3,-2 14,-11 20,-15 33,-28 9,-9 17,-19 26,-29 22,-28 38,-56 54,-90 5,-10 9,-21 13,-31 2,-6 10,-29 10,-34l-18 12c-77,49 -159,79 -250,95 -37,6 -77,11 -115,11z"/>
   <path class="fil10" d="M644 436l0 21c0,0 3,-5 4,-6l12 -22c26,-45 53,-106 67,-156 6,-23 12,-51 13,-76 0,-6 0,-5 -3,-9l-20 -24c-2,-2 -4,-3 -6,-5l-17 -16c-3,-3 -15,-13 -18,-16 -32,-25 -77,-49 -116,-63 -6,-2 -29,-10 -34,-10l12 19c4,6 8,12 12,19 24,40 44,84 58,129 21,64 36,147 36,215z"/>
   <path class="fil1" d="M491 466l5 -18 7 0 8 -24 -27 0 0 -7 -26 0 -10 31 7 0c0,5 -3,12 -5,15 -3,3 -3,3 -8,3 -3,0 -7,0 -10,0l13 -42 -9 0 -14 42 -25 0 14 -42 -9 -1c-2,7 -5,15 -7,22 -1,2 -7,21 -8,21l-45 0 -9 28c2,0 23,0 27,0 13,0 14,0 22,-7 1,1 1,4 7,6 3,1 9,1 13,1 5,0 8,0 12,-2 5,-3 4,-6 8,-6 2,1 0,4 6,7 9,3 20,-2 24,-10 3,-4 6,-10 8,-16 1,-6 4,-13 5,-19l22 0c0,3 -2,6 -3,9 -2,7 -7,21 -8,27 0,4 0,7 3,8 3,2 7,2 11,2 5,-1 11,-8 14,-9 1,2 0,2 2,4 2,1 3,2 5,3 4,2 8,2 13,2 6,0 9,0 14,-2 5,-2 6,-6 9,-6 2,1 0,4 6,7 3,1 19,1 23,0 13,-6 25,-18 26,-36 -11,0 -9,0 -10,2 0,0 0,1 0,2 -2,6 -6,5 -10,5 -7,0 -13,0 -20,0l16 -51 -9 0c-1,2 -1,4 -2,6 -2,2 -2,3 -5,3 -6,0 -11,0 -16,0 -14,0 -19,-3 -24,8 -4,8 -10,32 -15,34 -1,0 -14,0 -16,0z"/>
   <path class="fil1" d="M310 378l-53 0 1 -7 -7 0 -7 29c1,1 2,1 3,1 4,2 0,3 9,3 6,0 43,-1 46,0l-29 90 10 0 14 -46 36 0c6,0 6,1 10,-2l62 -38c6,-3 6,-4 7,-11 2,-6 4,-13 5,-19l-97 0 4 -14 -9 -1 -5 15z"/>
   <path class="fil2" d="M305 423c7,1 43,0 53,1 5,0 4,-1 10,-4l20 -13c1,-1 2,-1 2,-2l2 -1c0,0 0,0 0,0l-80 0 -7 19z"/>
   <path class="fil2" d="M519 466l28 0c6,-1 10,-12 11,-18l-28 0c-6,1 -9,13 -11,18z"/>
  </g>
  <path class="fil11" d="M977 496l0 -116c0,-15 -1,-25 -4,-29 -2,-4 -7,-7 -16,-10 -14,-3 -20,-10 -20,-20 0,-6 2,-11 8,-15 6,-3 14,-5 24,-5 4,0 13,0 27,0l13 0c25,0 39,0 43,0 4,0 19,-2 45,-4 9,-1 17,-1 24,-1 24,0 45,5 64,15 33,17 50,44 50,81 0,30 -12,54 -35,72 -22,17 -48,26 -79,26 -7,0 -17,-1 -28,-2 -6,0 -10,0 -12,0 -4,0 -6,2 -6,7l0 1 1 37c1,7 2,12 4,15 3,4 7,7 14,11 10,5 15,11 15,17 0,9 -7,16 -22,21 -14,5 -34,8 -60,8 -54,0 -82,-9 -82,-28 0,-5 2,-8 4,-10 2,-3 8,-6 16,-10 6,-3 9,-7 10,-12 1,-5 1,-21 2,-49zm99 -144l0 75c0,6 2,9 4,10 4,2 10,4 16,4 10,0 18,-3 25,-9 10,-8 14,-21 14,-39 0,-19 -5,-33 -17,-42 -7,-5 -15,-8 -25,-8 -11,0 -17,3 -17,9z"/>
  <path id="1" class="fil11" d="M1371 393l0 120c0,25 8,38 25,38 4,0 9,-1 13,-3 4,-3 7,-6 8,-9 4,-8 5,-23 5,-48 0,-24 -1,-41 -2,-49 -1,-4 -2,-7 -3,-8 -2,-2 -5,-4 -9,-6 -8,-5 -12,-10 -12,-17 0,-9 7,-16 21,-19 28,-7 55,-10 82,-10 14,0 22,8 22,23 0,2 0,5 0,10 -1,7 -1,16 -1,26l0 98c0,5 4,9 13,14 7,3 11,8 11,15 0,13 -16,24 -47,31 -19,4 -37,6 -54,6 -7,0 -12,-1 -15,-2 -2,-2 -4,-5 -4,-10 -1,-9 -4,-13 -8,-13 -2,0 -4,0 -5,1 -2,1 -6,4 -14,9 -15,10 -31,15 -48,15 -28,0 -48,-8 -60,-25 -10,-13 -15,-36 -15,-69 0,-12 0,-22 0,-31 0,-5 0,-8 0,-10 0,-13 -1,-22 -3,-28 -2,-6 -6,-11 -12,-14 -6,-3 -10,-5 -11,-7 -2,-2 -3,-4 -3,-8 0,-11 9,-18 26,-22 29,-6 58,-9 87,-9 8,0 13,3 13,11z"/>
  <path id="2" class="fil11" d="M1660 381c8,0 13,1 14,4 2,2 3,9 5,21 0,6 3,10 7,10 3,0 5,-2 8,-7 12,-18 27,-27 46,-27 14,0 25,4 33,13 4,4 8,9 10,16 3,7 4,13 4,20 0,6 -1,14 -4,21 -4,7 -8,13 -13,18 -9,9 -21,13 -35,13 -7,0 -14,-1 -19,-4 -5,-2 -12,-8 -20,-16 -3,-3 -6,-4 -8,-4 -5,0 -7,2 -8,7 -2,4 -2,14 -2,29 0,22 0,37 2,46 1,4 3,7 4,9 2,1 6,3 12,5 14,4 20,11 20,21 0,6 -2,11 -6,16 -5,4 -10,7 -17,9 -14,3 -35,4 -63,4 -26,0 -46,-2 -59,-7 -12,-4 -18,-11 -18,-21 0,-8 4,-15 13,-21 4,-3 7,-5 9,-8 1,-2 2,-5 3,-9 2,-13 4,-38 4,-75 0,-6 -1,-11 -3,-14 -1,-3 -4,-5 -9,-7 -10,-4 -15,-10 -15,-18 0,-7 3,-13 11,-18 7,-5 19,-10 36,-15 23,-7 42,-10 58,-11z"/>
  <path id="3" class="fil11" d="M1921 380c26,0 47,6 65,19 10,7 16,15 20,24 4,9 6,21 6,37l-1 33c0,23 2,38 5,44 2,4 3,6 5,7 1,1 4,1 9,2 5,1 7,4 7,9 0,7 -3,15 -8,23 -6,7 -13,14 -22,19 -12,6 -23,10 -35,10 -16,0 -28,-6 -37,-16 -3,-4 -6,-6 -9,-6 -3,0 -6,2 -11,5 -15,11 -32,17 -51,17 -19,0 -35,-5 -46,-13 -8,-5 -15,-12 -19,-21 -5,-9 -7,-18 -7,-28 0,-15 6,-29 19,-41 19,-18 48,-28 86,-28 9,0 14,-1 17,-2 2,-2 3,-6 3,-12 0,-16 -2,-27 -5,-34 -3,-7 -8,-11 -16,-11 -4,0 -8,2 -12,4 -3,3 -8,8 -13,15 -13,19 -27,28 -41,28 -7,0 -13,-2 -18,-6 -4,-4 -6,-10 -6,-17 0,-7 2,-14 8,-21 6,-7 13,-14 23,-19 27,-14 55,-21 84,-21zm-15 128c-6,0 -12,3 -17,8 -5,5 -7,12 -7,19 0,7 2,13 5,17 3,5 8,7 14,7 11,0 17,-10 17,-30 0,-8 -1,-14 -2,-17 -2,-2 -5,-4 -10,-4z"/>
  <path id="4" class="fil11" d="M2211 298l114 0c23,0 40,0 50,-1 11,-1 21,-3 31,-6 3,-1 6,-1 7,-1 8,0 15,4 21,12 10,14 14,30 14,49 0,9 -2,17 -6,23 -4,5 -9,8 -16,8 -5,0 -9,-1 -12,-3 -2,-2 -6,-7 -11,-14 -6,-9 -14,-16 -24,-19 -10,-4 -27,-5 -49,-5 -17,0 -28,3 -31,9 -2,3 -4,7 -4,13 0,5 0,19 0,42 0,8 1,14 4,16 3,2 11,3 23,3 6,0 11,-1 14,-4 3,-2 4,-7 5,-13 1,-9 2,-15 3,-18 1,-3 3,-6 6,-8 3,-3 7,-4 11,-4 6,0 11,3 16,8 3,5 5,12 8,23 2,11 3,22 3,34 0,23 -4,42 -11,57 -4,9 -10,13 -18,13 -5,0 -9,-2 -11,-4 -1,-3 -3,-8 -4,-16 -2,-17 -12,-25 -29,-25 -7,0 -11,2 -14,6 -2,4 -4,12 -4,23 0,7 1,16 2,27 1,11 2,18 3,22 1,4 5,8 11,9 6,2 16,3 31,3 22,0 38,-3 50,-9 11,-5 20,-16 27,-31 4,-8 8,-14 11,-17 4,-3 8,-4 13,-4 6,0 11,2 16,8 4,5 6,12 6,20 0,9 -3,20 -7,33 -5,13 -10,25 -17,36 -3,5 -6,8 -8,10 -3,1 -6,2 -9,2 -3,0 -7,0 -12,-1 -10,-2 -22,-3 -38,-3l-188 0c-7,0 -13,-2 -17,-5 -4,-4 -6,-8 -6,-14 0,-5 1,-8 2,-10 2,-2 6,-4 12,-7 5,-2 8,-4 10,-7 2,-3 4,-7 5,-13 5,-22 8,-52 8,-90 0,-57 -4,-93 -11,-108 -1,-2 -3,-5 -5,-6 -2,-1 -5,-2 -11,-4 -8,-2 -13,-8 -13,-17 0,-4 2,-9 5,-12 2,-4 6,-6 11,-8 5,-1 17,-2 33,-2z"/>
  <path id="5" class="fil11" d="M2747 462l3 78c0,6 1,10 3,13 1,3 6,8 13,16 2,2 4,6 4,10 0,10 -6,16 -18,20 -12,4 -32,6 -62,6 -21,0 -35,-2 -44,-5 -8,-4 -13,-10 -13,-18 0,-3 1,-5 2,-7 1,-1 4,-5 9,-10 5,-6 8,-27 8,-62 0,-20 -2,-36 -7,-45 -4,-8 -11,-12 -21,-12 -10,0 -17,3 -20,10 -4,6 -6,17 -6,34l0 44c0,9 1,15 2,18 1,3 5,9 11,19 1,2 2,5 2,9 0,8 -6,15 -18,19 -12,4 -31,6 -57,6 -41,0 -61,-8 -61,-25 0,-4 0,-6 2,-8 1,-2 4,-5 9,-8 4,-3 6,-6 7,-10 1,-3 2,-12 3,-27 1,-16 1,-34 1,-52 0,-11 0,-17 -2,-20 -1,-4 -6,-7 -13,-12 -7,-4 -10,-9 -10,-15 0,-6 3,-10 8,-14 5,-4 16,-9 32,-14 14,-6 28,-10 41,-13 13,-4 22,-5 27,-5 4,0 8,1 11,4 3,4 4,8 4,12 0,0 0,2 0,6 0,1 0,2 0,3 0,7 3,10 9,10 3,0 7,-3 11,-8 13,-18 31,-28 56,-28 18,0 34,5 47,15 10,7 16,15 20,24 4,10 6,24 7,42z"/>
  <path id="6" class="fil11" d="M3018 368c3,0 7,2 9,6 3,5 5,10 5,15 0,6 -2,13 -6,21 -4,7 -8,14 -14,18 -3,3 -5,5 -5,7 0,1 0,2 1,6 0,3 0,5 0,8 0,18 -6,32 -17,44 -11,11 -25,19 -41,25 -17,6 -36,9 -56,9 -5,0 -9,0 -14,-1 -4,0 -7,-1 -9,-1 -8,0 -12,4 -12,12 0,5 3,9 8,12 5,3 12,4 21,4 6,0 14,-1 26,-2 24,-4 42,-5 53,-5 18,0 31,3 41,8 8,5 14,11 18,19 5,8 7,16 7,26 0,14 -5,29 -16,43 -13,17 -33,29 -58,37 -20,6 -42,9 -68,9 -33,0 -60,-5 -80,-15 -10,-5 -17,-11 -23,-19 -5,-7 -8,-15 -8,-24 0,-5 1,-11 5,-15 3,-5 7,-9 12,-11 4,-2 6,-4 6,-6 0,-1 -1,-4 -5,-7 -12,-10 -18,-20 -18,-30 0,-8 3,-15 9,-22 5,-8 12,-14 21,-18 3,-2 5,-3 5,-5 0,-2 -2,-5 -7,-10 -15,-14 -22,-30 -22,-49 0,-10 2,-19 8,-28 5,-9 13,-17 22,-23 24,-16 50,-23 79,-23 12,0 25,1 39,4 13,3 22,4 27,4 17,0 33,-6 48,-19 4,-3 7,-4 9,-4zm-121 46c-7,0 -13,3 -17,8 -5,6 -7,13 -7,23 0,16 2,28 7,38 5,10 12,14 19,14 8,0 14,-3 19,-9 5,-6 7,-14 7,-24 0,-15 -3,-28 -7,-36 -5,-9 -12,-14 -21,-14zm-48 201c-4,0 -5,3 -5,7 0,8 4,16 14,21 9,5 21,8 37,8 14,0 25,-2 34,-6 8,-4 12,-9 12,-16 0,-4 -2,-7 -5,-9 -3,-3 -7,-4 -11,-4 -3,0 -6,0 -11,1 -8,1 -17,2 -27,2 -8,0 -15,-1 -22,-1 -5,-1 -9,-1 -12,-2 -2,0 -3,-1 -4,-1z"/>
  <path id="7" class="fil11" d="M3168 395l0 129c0,10 0,18 2,22 2,5 6,9 12,13 4,4 7,6 9,9 1,2 2,5 2,8 0,19 -24,29 -72,29 -26,0 -47,-2 -62,-6 -5,-2 -9,-4 -13,-8 -3,-4 -4,-8 -4,-13 0,-4 0,-7 2,-9 2,-2 6,-6 12,-11 5,-3 8,-8 10,-16 2,-8 3,-19 3,-34 0,-5 0,-14 -1,-28 -1,-13 -1,-21 -1,-23 -1,-6 -5,-11 -13,-14 -9,-4 -13,-10 -13,-18 0,-9 5,-16 17,-21 17,-6 35,-11 54,-16 18,-4 33,-6 43,-6 9,0 13,4 13,13zm-44 -97c13,0 23,3 30,8 8,4 12,11 12,19 0,11 -6,20 -17,27 -18,10 -40,16 -66,16 -11,0 -19,-2 -25,-7 -9,-5 -13,-12 -13,-22 0,-12 9,-22 27,-30 18,-7 36,-11 52,-11z"/>
  <path id="8" class="fil11" d="M3475 462l3 78c0,6 1,10 3,13 1,3 6,8 13,16 2,2 3,6 3,10 0,10 -5,16 -17,20 -12,4 -32,6 -62,6 -21,0 -35,-2 -44,-5 -8,-4 -13,-10 -13,-18 0,-3 1,-5 2,-7 1,-1 3,-5 9,-10 5,-6 8,-27 8,-62 0,-20 -2,-36 -7,-45 -4,-8 -11,-12 -21,-12 -10,0 -17,3 -20,10 -4,6 -6,17 -6,34l0 44c0,9 1,15 2,18 1,3 5,9 11,19 1,2 2,5 2,9 0,8 -6,15 -18,19 -12,4 -31,6 -57,6 -41,0 -61,-8 -61,-25 0,-4 0,-6 2,-8 1,-2 4,-5 9,-8 3,-3 6,-6 7,-10 1,-3 2,-12 3,-27 1,-16 1,-34 1,-52 0,-11 0,-17 -2,-20 -2,-4 -6,-7 -13,-12 -7,-4 -10,-9 -10,-15 0,-6 3,-10 8,-14 5,-4 16,-9 32,-14 14,-6 28,-10 41,-13 13,-4 22,-5 27,-5 4,0 8,1 11,4 3,4 4,8 4,12 0,0 0,2 0,6 0,1 0,2 0,3 0,7 3,10 9,10 3,0 7,-3 11,-8 13,-18 31,-28 56,-28 18,0 34,5 47,15 10,7 16,15 20,24 3,10 6,24 7,42z"/>
  <path id="9" class="fil11" d="M3715 501l-104 0c-5,0 -7,2 -7,6 0,10 5,19 16,27 10,9 21,13 33,13 7,0 15,-1 24,-4 8,-3 15,-6 21,-10 5,-3 9,-5 12,-5 4,0 8,2 11,7 4,5 6,9 6,14 0,11 -7,21 -20,31 -24,18 -51,27 -81,27 -31,0 -57,-9 -78,-27 -10,-9 -19,-20 -26,-33 -8,-16 -13,-34 -13,-52 0,-25 8,-47 23,-67 13,-17 29,-30 50,-38 15,-7 31,-10 48,-10 29,0 52,8 72,24 10,8 18,17 24,28 7,13 10,25 10,37 0,9 -2,17 -6,23 -4,6 -9,9 -15,9zm-98 -41l22 0c9,0 14,-4 14,-13 0,-8 -2,-15 -7,-20 -4,-5 -10,-7 -18,-7 -8,0 -14,3 -19,10 -5,6 -7,12 -7,18 0,4 1,8 3,9 3,2 6,3 12,3z"/>
  <path id="10" class="fil11" d="M3955 501l-104 0c-4,0 -7,2 -7,6 0,10 6,19 16,27 10,9 22,13 34,13 7,0 15,-1 23,-4 9,-3 16,-6 22,-10 4,-3 9,-5 11,-5 4,0 8,2 12,7 3,5 5,9 5,14 0,11 -6,21 -20,31 -23,18 -50,27 -81,27 -31,0 -57,-9 -78,-27 -10,-9 -18,-20 -25,-33 -9,-16 -13,-34 -13,-52 0,-25 7,-47 22,-67 13,-17 30,-30 50,-38 15,-7 31,-10 49,-10 28,0 52,8 71,24 10,8 18,17 24,28 7,13 11,25 11,37 0,9 -2,17 -6,23 -4,6 -9,9 -16,9zm-98 -41l22 0c10,0 15,-4 15,-13 0,-8 -3,-15 -7,-20 -5,-5 -11,-7 -18,-7 -8,0 -15,3 -20,10 -4,6 -6,12 -6,18 0,4 1,8 3,9 2,2 6,3 11,3z"/>
  <path id="11" class="fil11" d="M4095 381c7,0 12,1 14,4 2,2 3,9 4,21 1,6 3,10 7,10 3,0 6,-2 9,-7 12,-18 27,-27 46,-27 13,0 24,4 33,13 4,4 7,9 10,16 3,7 4,13 4,20 0,6 -2,14 -5,21 -3,7 -7,13 -12,18 -10,9 -21,13 -35,13 -8,0 -14,-1 -19,-4 -5,-2 -12,-8 -20,-16 -3,-3 -6,-4 -9,-4 -4,0 -7,2 -8,7 -1,4 -2,14 -2,29 0,22 1,37 3,46 1,4 2,7 4,9 2,1 6,3 12,5 13,4 20,11 20,21 0,6 -2,11 -7,16 -4,4 -10,7 -17,9 -14,3 -35,4 -62,4 -26,0 -46,-2 -60,-7 -12,-4 -18,-11 -18,-21 0,-8 5,-15 13,-21 5,-3 8,-5 9,-8 2,-2 3,-5 4,-9 2,-13 3,-38 3,-75 0,-6 0,-11 -2,-14 -1,-3 -4,-5 -9,-7 -10,-4 -16,-10 -16,-18 0,-7 4,-13 11,-18 8,-5 20,-10 37,-15 22,-7 42,-10 58,-11z"/>
  <path id="12" class="fil11" d="M4360 395l0 129c0,10 1,18 3,22 1,5 5,9 11,13 4,4 7,6 9,9 2,2 2,5 2,8 0,19 -24,29 -72,29 -26,0 -47,-2 -62,-6 -5,-2 -9,-4 -12,-8 -4,-4 -5,-8 -5,-13 0,-4 1,-7 2,-9 2,-2 6,-6 13,-11 4,-3 8,-8 9,-16 2,-8 3,-19 3,-34 0,-5 0,-14 -1,-28 0,-13 -1,-21 -1,-23 -1,-6 -5,-11 -13,-14 -9,-4 -13,-10 -13,-18 0,-9 6,-16 18,-21 16,-6 34,-11 53,-16 19,-4 33,-6 44,-6 8,0 12,4 12,13zm-44 -97c13,0 23,3 31,8 7,4 11,11 11,19 0,11 -6,20 -17,27 -18,10 -40,16 -66,16 -10,0 -19,-2 -25,-7 -9,-5 -13,-12 -13,-22 0,-12 9,-22 27,-30 19,-7 36,-11 52,-11z"/>
  <path id="13" class="fil11" d="M4667 462l3 78c0,6 1,10 3,13 1,3 6,8 13,16 3,2 4,6 4,10 0,10 -6,16 -18,20 -11,4 -32,6 -62,6 -21,0 -35,-2 -43,-5 -9,-4 -13,-10 -13,-18 0,-3 0,-5 1,-7 1,-1 4,-5 9,-10 6,-6 9,-27 9,-62 0,-20 -3,-36 -7,-45 -4,-8 -11,-12 -22,-12 -10,0 -16,3 -20,10 -4,6 -6,17 -6,34l0 44c0,9 1,15 2,18 1,3 5,9 11,19 2,2 2,5 2,9 0,8 -6,15 -18,19 -12,4 -31,6 -56,6 -41,0 -62,-8 -62,-25 0,-4 1,-6 2,-8 1,-2 4,-5 9,-8 4,-3 6,-6 7,-10 1,-3 2,-12 3,-27 1,-16 2,-34 2,-52 0,-11 -1,-17 -3,-20 -1,-4 -6,-7 -13,-12 -6,-4 -10,-9 -10,-15 0,-6 3,-10 8,-14 5,-4 16,-9 32,-14 14,-6 28,-10 41,-13 13,-4 22,-5 27,-5 4,0 8,1 11,4 3,4 5,8 5,12 0,0 0,2 0,6 -1,1 -1,2 -1,3 0,7 3,10 9,10 4,0 7,-3 11,-8 13,-18 32,-28 56,-28 18,0 34,5 48,15 9,7 15,15 19,24 4,10 6,24 7,42z"/>
  <path id="14" class="fil11" d="M4938 368c4,0 7,2 10,6 2,5 4,10 4,15 0,6 -2,13 -6,21 -4,7 -8,14 -13,18 -4,3 -6,5 -6,7 0,1 1,2 1,6 0,3 1,5 1,8 0,18 -6,32 -18,44 -11,11 -24,19 -41,25 -17,6 -35,9 -55,9 -5,0 -10,0 -15,-1 -4,0 -7,-1 -9,-1 -7,0 -11,4 -11,12 0,5 2,9 7,12 5,3 12,4 21,4 6,0 15,-1 26,-2 24,-4 42,-5 54,-5 17,0 31,3 40,8 8,5 14,11 18,19 5,8 7,16 7,26 0,14 -5,29 -16,43 -13,17 -32,29 -58,37 -19,6 -42,9 -68,9 -33,0 -60,-5 -80,-15 -9,-5 -17,-11 -23,-19 -5,-7 -8,-15 -8,-24 0,-5 2,-11 5,-15 3,-5 7,-9 12,-11 4,-2 7,-4 7,-6 0,-1 -2,-4 -6,-7 -12,-10 -18,-20 -18,-30 0,-8 3,-15 9,-22 6,-8 13,-14 21,-18 4,-2 5,-3 5,-5 0,-2 -2,-5 -6,-10 -16,-14 -23,-30 -23,-49 0,-10 3,-19 8,-28 5,-9 13,-17 22,-23 24,-16 51,-23 79,-23 12,0 25,1 39,4 13,3 23,4 28,4 16,0 32,-6 48,-19 3,-3 6,-4 8,-4zm-120 46c-8,0 -14,3 -18,8 -5,6 -7,13 -7,23 0,16 3,28 7,38 5,10 12,14 20,14 7,0 14,-3 18,-9 5,-6 7,-14 7,-24 0,-15 -2,-28 -7,-36 -5,-9 -12,-14 -20,-14zm-49 201c-3,0 -5,3 -5,7 0,8 5,16 14,21 9,5 22,8 37,8 14,0 26,-2 34,-6 8,-4 12,-9 12,-16 0,-4 -1,-7 -5,-9 -3,-3 -7,-4 -11,-4 -2,0 -6,0 -10,1 -9,1 -18,2 -28,2 -7,0 -15,-1 -22,-1 -5,-1 -9,-1 -12,-2 -2,0 -3,-1 -4,-1z"/>
  <rect class="fil12" x="1713" y="743" width="2463" height="560"/>
  <path class="fil13" d="M2305 986l0 87c0,19 2,32 5,37 5,7 13,10 27,10 14,0 25,-3 34,-9 8,-6 14,-16 17,-29 2,-9 6,-13 13,-13 6,0 12,3 16,9 4,6 6,14 6,24 0,15 -5,32 -17,50 -4,5 -7,9 -10,11 -2,2 -6,3 -10,3l-42 -5 -131 0c-9,0 -15,-1 -19,-3 -5,-3 -7,-7 -7,-13 0,-3 0,-6 2,-8 2,-1 6,-4 13,-7 7,-3 11,-8 13,-14 2,-5 3,-20 3,-45 0,-12 -1,-29 -1,-50 -1,-21 -1,-37 -1,-47 0,-11 -1,-17 -3,-21 -1,-4 -5,-7 -10,-8 -8,-3 -13,-5 -15,-7 -5,-3 -7,-7 -7,-11 0,-9 8,-16 23,-21 13,-4 31,-6 52,-6 25,0 43,1 55,4 16,3 23,10 23,20 0,4 -1,7 -3,9 -2,2 -7,5 -15,8 -5,3 -8,6 -9,11 -1,6 -2,17 -2,34z"/>
  <path id="1" class="fil13" d="M2602 1077l-88 0c-4,0 -6,1 -6,5 0,8 4,16 13,23 9,7 19,11 29,11 6,0 12,-1 20,-4 7,-2 13,-5 18,-8 4,-3 8,-5 10,-5 4,0 7,2 10,6 3,4 5,8 5,13 0,9 -6,17 -17,26 -20,15 -43,22 -70,22 -26,0 -48,-7 -66,-23 -9,-7 -16,-16 -22,-27 -7,-14 -11,-29 -11,-45 0,-21 7,-40 20,-57 11,-15 25,-25 42,-33 13,-5 27,-8 41,-8 24,0 45,7 61,21 9,7 16,15 21,24 6,10 9,21 9,31 0,8 -2,15 -5,20 -4,5 -8,8 -14,8zm-83 -36l19 0c8,0 12,-3 12,-11 0,-7 -2,-12 -6,-16 -4,-5 -9,-7 -15,-7 -7,0 -13,3 -17,9 -4,5 -6,10 -6,15 0,4 1,7 3,8 2,2 5,2 10,2z"/>
  <path id="2" class="fil13" d="M2724 975c8,0 11,5 11,15 0,0 0,1 0,3 0,2 0,4 0,5 0,7 2,10 6,10 2,0 6,-2 10,-8 7,-8 15,-14 26,-18 10,-5 21,-7 31,-7 21,0 36,7 44,23 3,5 6,8 8,8 1,0 5,-2 10,-7 16,-16 35,-24 55,-24 17,0 30,4 40,13 11,9 16,23 16,42 0,4 0,11 0,20 0,4 0,13 0,30 0,10 0,18 -1,22 0,3 0,5 0,6 0,8 3,15 8,21 3,4 5,6 5,7 1,1 1,3 1,5 0,16 -19,24 -56,24 -17,0 -31,-2 -41,-6 -10,-4 -15,-9 -15,-16 0,-2 0,-4 1,-5 0,-2 3,-5 7,-11 4,-5 6,-22 6,-51 0,-17 -1,-29 -4,-36 -2,-8 -8,-12 -16,-12 -4,0 -8,2 -11,4 -3,3 -6,6 -7,10 -1,4 -1,16 -2,36 1,21 2,34 2,39 1,4 5,10 10,18 1,2 2,5 2,8 0,14 -20,22 -59,22 -23,0 -39,-2 -47,-5 -7,-3 -10,-8 -10,-15 0,-3 0,-5 1,-7 1,-1 4,-4 9,-8 2,-3 4,-5 5,-8 1,-2 1,-6 2,-12 1,-14 1,-28 1,-42 0,-25 -6,-37 -19,-37 -9,0 -15,5 -17,16 -1,9 -2,24 -2,42 0,14 0,23 1,27 1,5 2,9 5,14 3,5 4,10 4,13 0,8 -6,14 -17,17 -13,3 -26,5 -41,5 -20,0 -34,-2 -43,-5 -9,-3 -13,-8 -13,-14 0,-3 0,-5 1,-7 2,-1 4,-4 9,-8 5,-5 9,-12 9,-21 2,-16 2,-32 2,-49 0,-12 0,-20 -1,-25 -2,-4 -4,-8 -8,-11 -4,-3 -6,-5 -7,-7 -1,-1 -2,-3 -2,-6 0,-8 7,-15 20,-20 32,-11 56,-17 71,-17z"/>
  <path id="3" class="fil13" d="M3108 915l-2 74c0,1 0,3 0,4 0,2 1,4 2,4 1,0 4,-2 8,-6 14,-12 31,-18 48,-18 18,0 33,7 47,19 17,16 25,37 25,63 0,36 -13,66 -41,88 -19,15 -42,23 -69,23 -13,0 -25,-1 -35,-5 -11,-3 -22,-9 -35,-17 -1,-1 -3,-1 -4,-1 -1,0 -5,1 -12,3 -3,1 -7,2 -11,2 -8,0 -12,-2 -12,-8 0,-1 0,-3 1,-5 2,-8 4,-18 5,-31 1,-12 1,-31 1,-57l0 -52c0,-13 0,-21 -1,-24 -1,-4 -4,-6 -9,-8 -6,-3 -11,-6 -13,-8 -3,-3 -4,-6 -4,-11 0,-8 9,-16 27,-24 10,-4 22,-8 37,-11 14,-4 27,-5 37,-5 7,0 10,4 10,11zm16 115c-6,0 -11,2 -14,7 -3,4 -4,11 -4,22 0,29 1,49 3,59 2,10 7,15 16,15 9,0 16,-4 21,-12 5,-8 7,-19 7,-34 0,-22 -4,-38 -12,-48 -4,-6 -10,-9 -17,-9z"/>
  <path id="4" class="fil13" d="M3353 984l0 102c0,22 7,33 22,33 3,0 7,-1 11,-3 3,-2 6,-5 7,-8 3,-6 4,-19 4,-40 0,-21 -1,-35 -2,-42 0,-3 -1,-6 -3,-7 -1,-2 -3,-3 -7,-5 -7,-4 -10,-9 -10,-14 0,-8 6,-14 18,-17 23,-5 46,-8 69,-8 13,0 19,6 19,20 0,1 0,4 0,8 0,6 0,14 -1,22l0 84c0,4 4,8 11,11 7,3 10,8 10,13 0,12 -14,21 -40,27 -16,3 -31,5 -46,5 -6,0 -10,0 -12,-2 -3,-1 -4,-4 -4,-8 -1,-8 -3,-12 -7,-12 -2,0 -3,1 -5,1 -1,1 -5,4 -11,8 -13,9 -27,13 -41,13 -24,0 -41,-7 -51,-21 -9,-12 -13,-31 -13,-59 0,-10 0,-19 0,-26 0,-5 0,-8 0,-9 0,-11 -1,-19 -3,-24 -2,-5 -5,-9 -10,-12 -5,-2 -8,-4 -10,-6 -1,-1 -2,-4 -2,-6 0,-10 8,-16 22,-19 25,-6 49,-8 74,-8 7,0 11,3 11,9z"/>
  <path id="5" class="fil13" d="M3600 974c6,0 10,1 12,3 1,2 3,8 4,18 0,6 2,9 6,9 2,0 5,-2 7,-6 10,-15 23,-23 39,-23 12,0 21,3 28,11 4,3 7,8 9,14 2,6 3,11 3,16 0,6 -1,12 -4,19 -3,6 -6,11 -11,15 -8,8 -17,11 -29,11 -7,0 -12,-1 -16,-3 -5,-2 -10,-7 -17,-14 -3,-2 -5,-4 -8,-4 -3,0 -6,2 -7,6 -1,4 -1,13 -1,25 0,19 1,32 2,39 1,4 2,6 4,8 1,1 4,3 10,4 11,4 17,10 17,18 0,5 -2,10 -6,14 -4,3 -8,6 -14,7 -12,3 -30,4 -54,4 -22,0 -39,-2 -50,-6 -11,-3 -16,-9 -16,-18 0,-7 4,-13 12,-18 3,-2 6,-4 7,-6 1,-2 2,-5 3,-8 2,-12 3,-33 3,-64 0,-5 -1,-10 -2,-12 -1,-2 -4,-4 -8,-6 -8,-3 -13,-9 -13,-15 0,-6 3,-11 9,-16 6,-4 17,-8 31,-13 20,-5 36,-8 50,-9z"/>
 </g>
</svg>
