<?xml version="1.0" encoding="UTF-8"?>
<!DOCTYPE svg PUBLIC "-//W3C//DTD SVG 1.1//EN" "http://www.w3.org/Graphics/SVG/1.1/DTD/svg11.dtd">
<!-- Creator: CorelDRAW X7 -->
<svg xmlns="http://www.w3.org/2000/svg" xml:space="preserve" width="10.9987cm" height="4.00354cm" version="1.1" style="shape-rendering:geometricPrecision; text-rendering:geometricPrecision; image-rendering:optimizeQuality; fill-rule:evenodd; clip-rule:evenodd"
viewBox="0 0 3790 1380"
 xmlns:xlink="http://www.w3.org/1999/xlink">
 <defs>
  <style type="text/css">
   <![CDATA[
    .fil0 {fill:#D2D3D5}
    .fil2 {fill:black}
    .fil11 {fill:#007445}
    .fil10 {fill:#014083}
    .fil5 {fill:#0A689E}
    .fil8 {fill:#5D236D}
    .fil4 {fill:#913672}
    .fil7 {fill:#E10A15}
    .fil1 {fill:#E6E6E6}
    .fil9 {fill:#FC7E41}
    .fil6 {fill:#FFF100}
    .fil3 {fill:white}
    .fil12 {fill:#373435;fill-rule:nonzero}
   ]]>
  </style>
 </defs>
 <rect class="fil0" x="-9219" y="-5620" width="7440" height="9628"/>
 <g id="Layer_x0020_1">
  <metadata id="CorelCorpID_0Corel-Layer"/>
  <path class="fil1" d="M690 0c224,0 423,107 549,273l2385 0c91,0 166,74 166,166l0 502c0,91 -75,166 -166,166l-2385 0c-126,166 -325,273 -549,273 -381,0 -690,-309 -690,-690 0,-381 309,-690 690,-690z"/>
  <g id="_2251251094704">
   <path class="fil2" d="M139 670l0 40c0,1 2,27 2,31 2,26 8,64 15,87 28,104 76,187 147,258 3,3 6,6 9,8 1,2 3,3 4,4 2,1 3,3 4,4l28 24c23,18 44,33 70,48 29,16 60,31 93,42 17,6 33,11 52,16 25,6 59,12 87,14 4,0 30,1 31,2l31 0c1,-1 28,-2 32,-2 65,-5 130,-23 188,-50 35,-16 67,-36 96,-57 10,-8 18,-15 28,-22l27 -24c25,-25 51,-53 70,-83 23,-33 32,-48 50,-86 23,-47 39,-104 46,-157 2,-10 3,-21 4,-31 0,-4 1,-31 2,-32l0 -28c-1,-2 -2,-28 -2,-32 -6,-68 -22,-127 -50,-188 -5,-12 -11,-23 -17,-34 -2,-4 -4,-7 -6,-11 -9,-16 -20,-31 -29,-46l-34 -42c-1,-1 -1,-2 -2,-3 -8,-8 -23,-25 -31,-32 -3,-3 -6,-5 -9,-8l-13 -12c-2,-2 -3,-3 -5,-4 -3,-3 -6,-5 -9,-8l-29 -22c-29,-21 -53,-33 -85,-49 -15,-8 -32,-14 -48,-20 -43,-16 -93,-27 -139,-31 -5,0 -29,-1 -31,-2l-39 0c-3,1 -27,2 -32,2 -45,5 -95,15 -138,31 -31,11 -63,25 -91,42 -25,15 -34,22 -56,37 -7,5 -16,14 -23,19 -6,5 -12,11 -18,16l-9 8c-54,52 -101,119 -129,190 -12,29 -17,44 -25,75 -5,18 -9,38 -12,56 -1,10 -2,20 -3,30 -1,5 -2,30 -2,32z"/>
   <path class="fil3" d="M679 145c-64,3 -113,13 -171,34 -25,9 -67,28 -92,44 -26,17 -46,29 -69,49 -31,26 -59,55 -84,88 -2,3 -4,6 -7,9 -5,7 -9,13 -14,20 -62,96 -93,198 -90,319 2,55 14,120 33,170 7,17 13,33 21,48 14,29 19,38 37,65 11,17 23,33 36,49l8 9c4,4 12,14 16,18l31 29c7,8 32,27 42,34 95,71 220,109 339,104 82,-3 152,-22 218,-53 31,-15 77,-43 104,-66 7,-6 17,-13 23,-20 3,-2 9,-7 13,-12l26 -26c2,-3 5,-6 8,-9 5,-6 10,-12 15,-18 12,-15 19,-25 29,-40 18,-26 34,-56 48,-88 60,-143 56,-309 -12,-448 -7,-16 -15,-31 -23,-45 -8,-12 -19,-30 -28,-41 -4,-5 -10,-14 -14,-19l-12 -14c-1,-1 -1,-1 -2,-2l-18 -20c-3,-3 -6,-6 -9,-9 -3,-2 -5,-5 -8,-8l-27 -24c-2,-2 -3,-3 -5,-4l-24 -19c-18,-13 -32,-22 -51,-33l-22 -12c-11,-5 -25,-12 -35,-16 -9,-3 -16,-7 -25,-10 -64,-23 -136,-36 -205,-33z"/>
   <path class="fil4" d="M570 1177l-16 -24c-36,-53 -74,-135 -92,-197 -15,-50 -23,-79 -32,-133 -10,-58 -15,-110 -14,-170 -2,2 -9,16 -11,19 -4,6 -7,12 -10,18 -47,83 -101,208 -104,303 0,5 0,4 4,10 3,3 5,5 7,8 4,6 9,11 13,16 1,1 2,2 4,3 5,7 21,22 29,29 1,2 2,2 4,4l7 6c22,19 44,33 68,49 6,3 12,7 18,10 12,7 26,13 39,19 13,6 28,12 41,17 9,3 38,13 45,13z"/>
   <path class="fil5" d="M869 914c4,0 36,-9 43,-11 54,-16 111,-37 162,-61 32,-15 76,-41 104,-63 3,-3 19,-15 22,-19 4,-4 5,-57 5,-65 0,-73 -18,-140 -46,-205 -2,-7 -5,-13 -8,-19 -3,-6 -17,-33 -20,-36 -1,2 -3,15 -4,19 -7,39 -22,89 -36,126 -26,65 -58,126 -96,182 -19,28 -38,55 -60,80l-37 43 -29 29z"/>
   <path class="fil6" d="M442 256c2,1 15,3 19,3 14,3 43,10 56,14 51,14 87,28 134,51 18,8 44,22 61,32 10,6 19,11 28,17 10,6 33,20 42,27 15,11 26,18 41,30 10,8 28,22 38,31l9 8c1,1 2,2 3,3 9,7 27,25 36,33 3,3 9,11 12,12 -1,-7 -9,-35 -12,-44 -4,-14 -8,-28 -13,-42 -9,-28 -19,-54 -30,-81 -20,-49 -49,-101 -80,-142 -4,-5 -9,-10 -13,-15 -8,-10 -8,-7 -19,-9 -76,-10 -168,6 -237,35 -25,10 -44,18 -67,31l-7 5c0,0 -1,0 -1,0l0 1z"/>
   <path class="fil7" d="M262 945c1,0 7,-34 8,-38 3,-12 6,-25 9,-37 21,-70 48,-133 83,-195 31,-52 76,-117 117,-162l10 -12c2,-1 2,-1 3,-3l9 -9c4,-4 7,-8 11,-12 4,-3 9,-7 12,-11 -8,1 -35,9 -44,11 -68,20 -136,46 -198,80 -6,3 -11,7 -17,10 -6,4 -12,7 -17,11 -14,8 -28,19 -41,29 -2,2 -13,12 -14,13 -2,3 -2,9 -2,12 -11,96 11,192 52,277 3,7 16,32 19,36z"/>
   <path class="fil8" d="M951 1124l-38 -8c-63,-14 -113,-33 -171,-60 -39,-19 -83,-44 -118,-68 -9,-6 -18,-13 -27,-19 -19,-13 -41,-31 -59,-46l-22 -19c-1,-1 -2,-1 -3,-2 -10,-10 -26,-25 -35,-34l-6 -6c0,7 22,78 25,86 10,31 18,50 30,81 13,33 37,79 57,109 4,6 13,19 17,25 7,8 18,24 26,30 4,4 56,5 64,5 67,0 125,-14 186,-37 13,-5 26,-11 38,-17 10,-4 19,-9 28,-14 1,-1 7,-4 8,-6z"/>
   <path class="fil9" d="M209 563l25 -17c124,-80 271,-122 418,-134 13,-1 27,-2 40,-2 7,0 14,-1 21,-1 6,0 15,1 21,0l-37 -21c-12,-7 -25,-13 -38,-20 -26,-13 -53,-26 -80,-37 -29,-11 -57,-21 -87,-30 -30,-8 -68,-17 -101,-17 -5,0 -30,23 -33,26 -8,7 -14,14 -21,21 -3,2 -5,5 -7,7l-14 16c-29,33 -60,83 -77,124 -8,18 -18,43 -24,63 -1,5 -6,17 -6,22z"/>
   <path class="fil10" d="M686 970l-26 0c1,2 7,5 9,6 43,26 98,53 145,72 46,19 82,31 132,41 19,4 37,6 57,6 2,0 3,-1 4,-2 18,-15 26,-20 42,-37 13,-12 24,-24 34,-38 30,-36 51,-72 71,-116 6,-13 12,-28 17,-41 3,-8 13,-38 13,-45l-24 16c-99,65 -207,103 -325,124 -48,8 -100,14 -149,14z"/>
   <path class="fil11" d="M977 699l0 28c0,-1 4,-7 5,-9l16 -27c33,-59 69,-139 87,-204 8,-30 16,-66 17,-99 0,-8 0,-6 -4,-11l-26 -31c-3,-3 -5,-5 -8,-7l-22 -22c-4,-3 -19,-16 -24,-19 -41,-33 -99,-64 -150,-82 -8,-3 -38,-13 -45,-14l16 24c6,8 11,17 16,25 31,52 56,110 75,169 27,83 47,191 47,279z"/>
   <path class="fil2" d="M777 738l8 -23 8 0 11 -32 -36 0 0 -8 -33 0 -13 40 9 0c-1,6 -4,16 -7,20 -3,3 -4,3 -9,3 -5,0 -9,0 -14,0l17 -55 -11 0 -18 55 -33 0 17 -55 -11 0c-2,9 -7,20 -10,28 -1,3 -8,27 -9,27l-60 0 -12 36c4,1 31,1 37,1 16,0 17,1 28,-9 1,1 1,6 9,8 5,1 12,1 17,1 6,0 11,1 15,-3 6,-4 6,-8 11,-7 3,1 0,5 8,8 11,5 25,-2 31,-12 4,-6 7,-14 10,-21 2,-8 6,-17 7,-25l29 0c-1,4 -3,8 -4,12 -3,9 -9,27 -10,35 -1,5 -1,9 3,11 4,2 9,2 14,2 7,-1 15,-10 18,-12 2,3 1,3 4,6 1,1 4,3 6,4 6,3 10,2 17,2 7,0 12,1 18,-2 6,-4 8,-9 12,-8 3,1 0,5 8,9 4,1 24,1 29,-1 18,-7 33,-22 35,-46 -14,0 -13,-1 -14,2 0,0 0,2 0,2 -3,9 -7,7 -13,7 -8,0 -17,0 -25,0l21 -65 -12 0c-1,2 -2,4 -3,7 -2,3 -3,3 -7,3 -7,0 -14,0 -21,0 -18,0 -24,-3 -31,11 -5,10 -12,41 -19,44 -2,1 -18,0 -22,0z"/>
   <path class="fil2" d="M542 624l-68 0 1 -10 -9 0 -10 38c2,2 2,1 4,2 5,3 0,3 11,3 9,0 57,0 61,0l-38 118 12 0 20 -60 46 0c8,0 8,1 13,-2l81 -51c8,-3 7,-5 9,-14 3,-8 6,-17 7,-24l-127 0 6 -19 -13 0 -6 19z"/>
   <path class="fil3" d="M536 683c9,1 56,0 69,0 7,0 5,0 13,-5l26 -17c1,0 2,-1 3,-2l2 -1c0,0 0,0 0,-1l-105 0 -8 26z"/>
   <path class="fil3" d="M815 738l36 0c7,-1 13,-15 14,-23l-36 0c-8,1 -13,16 -14,23z"/>
  </g>
  <path class="fil12" d="M1734 895l49 0 0 -18 -49 0 0 -25 54 0 9 -18 -64 0c-11,0 -20,8 -20,18l0 67c0,10 9,19 20,19l64 0 -9 -18 -54 0 0 -25z"/>
  <path id="1" class="fil12" d="M1833 834c-10,0 -21,8 -21,18l0 86 21 0 0 -86 29 68c5,10 10,18 21,18 11,0 21,-8 21,-18l0 -86 -21 0 0 86 -29 -68c-4,-10 -10,-18 -21,-18z"/>
  <path id="2" class="fil12" d="M1959 834c-22,0 -40,18 -40,40l0 24c0,22 18,40 40,40l28 0c11,0 20,-9 20,-19l0 -33 -21 0 0 34 -27 0c-11,0 -19,-10 -19,-22l0 -24c0,-12 8,-22 19,-22l14 0c5,0 12,3 15,7l18 -13c-7,-7 -22,-12 -33,-12l-14 0z"/>
  <polygon id="3" class="fil12" points="2026,834 2026,938 2047,938 2047,834 "/>
  <path id="4" class="fil12" d="M2088 834c-11,0 -21,8 -21,18l0 86 21 0 0 -86 29 68c4,10 9,18 20,18 11,0 21,-8 21,-18l0 -86 -21 0 0 86 -28 -68c-5,-10 -10,-18 -21,-18z"/>
  <path id="5" class="fil12" d="M2198 895l49 0 0 -18 -49 0 0 -25 53 0 10 -18 -65 0c-10,0 -19,8 -19,18l0 67c0,10 9,19 19,19l65 0 -10 -18 -53 0 0 -25z"/>
  <path id="6" class="fil12" d="M2296 895l49 0 0 -18 -49 0 0 -25 53 0 10 -18 -64 0c-11,0 -20,8 -20,18l0 67c0,10 9,19 20,19l64 0 -10 -18 -53 0 0 -25z"/>
  <path id="7" class="fil12" d="M2395 852l27 0c11,0 19,6 19,17l0 4c0,12 -8,17 -19,17l-14 0 -12 18 17 0 25 30 26 0 -28 -32c15,-4 26,-16 26,-33l0 -4c0,-21 -18,-35 -40,-35l-28 0c-11,0 -20,8 -20,18l0 86 21 0 0 -86z"/>
  <polygon id="8" class="fil12" points="2480,834 2480,938 2501,938 2501,834 "/>
  <path id="9" class="fil12" d="M2542 834c-11,0 -21,8 -21,18l0 86 21 0 0 -86 29 68c4,10 10,18 21,18 10,0 21,-8 21,-18l0 -86 -21 0 0 86 -29 -68c-5,-10 -10,-18 -21,-18z"/>
  <path id="10" class="fil12" d="M2667 834c-22,0 -39,18 -39,40l0 24c0,22 17,40 39,40l29 0c11,0 19,-9 19,-19l0 -33 -21 0 0 34 -27 0c-10,0 -19,-10 -19,-22l0 -24c0,-12 9,-22 19,-22l14 0c6,0 12,3 16,7l18 -13c-7,-7 -23,-12 -34,-12l-14 0z"/>
  <path id="11" class="fil12" d="M2842 898c0,12 -8,22 -19,22l-27 0 0 -68 27 0c11,0 19,10 19,22l0 24zm-67 -46l0 86 48 0c22,0 40,-18 40,-40l0 -24c0,-22 -18,-40 -40,-40l-28 0c-11,0 -20,8 -20,18z"/>
  <polygon id="12" class="fil12" points="2880,834 2880,938 2901,938 2901,834 "/>
  <path id="13" class="fil12" d="M2966 917l-29 -83 -22 0 30 87c4,10 10,18 21,18 11,0 17,-8 21,-18l30 -87 -22 0 -29 83z"/>
  <polygon id="14" class="fil12" points="3030,834 3030,938 3051,938 3051,834 "/>
  <path id="15" class="fil12" d="M3067 864c0,34 66,26 66,44 0,6 -9,12 -19,12l-14 0c-6,0 -13,-3 -16,-8l-18 14c7,7 23,12 34,12l14 0c22,0 40,-14 40,-30 0,-35 -66,-28 -66,-44 0,-7 8,-12 18,-12l14 0c5,0 11,3 14,7l18 -13c-7,-7 -22,-12 -32,-12l-14 0c-21,0 -39,13 -39,30z"/>
  <polygon id="16" class="fil12" points="3171,834 3171,938 3192,938 3192,834 "/>
  <path id="17" class="fil12" d="M3261 939c22,0 40,-18 40,-39l0 -28c0,-22 -18,-39 -40,-39l-13 0c-23,0 -40,17 -40,39l0 28c0,21 17,39 40,39l13 0zm-13 -18c-11,0 -20,-10 -20,-21l0 -28c0,-12 9,-21 20,-21l13 0c11,0 20,9 20,21l0 28c0,11 -9,21 -20,21l-13 0z"/>
  <path id="18" class="fil12" d="M3339 834c-11,0 -21,8 -21,18l0 86 21 0 0 -86 29 68c4,10 10,18 21,18 11,0 21,-8 21,-18l0 -86 -21 0 0 86 -29 -68c-5,-10 -10,-18 -21,-18z"/>
  <path class="fil12" d="M1495 537l0 75c0,16 2,27 5,32 3,6 11,9 22,9 13,0 23,-3 30,-8 7,-6 12,-14 15,-26 1,-7 5,-10 11,-10 6,0 10,2 14,7 4,5 5,12 5,20 0,14 -5,28 -15,44 -3,5 -6,8 -8,10 -2,1 -5,2 -9,2l-36 -4 -114 0c-7,0 -12,-1 -15,-3 -5,-2 -7,-6 -7,-11 0,-3 1,-5 2,-7 1,-1 5,-3 11,-6 6,-3 10,-7 12,-12 1,-5 2,-18 2,-39 0,-10 -1,-25 -1,-43 -1,-19 -1,-32 -1,-41 0,-9 -1,-15 -2,-18 -1,-3 -4,-6 -9,-7 -7,-2 -11,-4 -13,-6 -4,-3 -6,-6 -6,-9 0,-8 7,-14 20,-18 11,-4 26,-6 45,-6 21,0 37,1 47,3 14,3 21,9 21,18 0,4 -1,6 -3,8 -2,2 -6,4 -13,7 -4,2 -7,5 -8,10 -1,4 -2,14 -2,29z"/>
  <path id="1" class="fil12" d="M1752 615l-77 0c-3,0 -5,1 -5,4 0,7 4,14 12,20 8,7 16,10 25,10 5,0 11,-1 17,-3 6,-2 12,-5 16,-8 3,-2 6,-4 8,-4 3,0 6,2 9,6 2,3 4,7 4,10 0,8 -5,16 -15,23 -17,13 -37,19 -60,19 -22,0 -42,-6 -57,-20 -7,-6 -14,-14 -19,-23 -6,-12 -9,-25 -9,-39 0,-18 5,-35 16,-49 10,-13 22,-22 37,-28 11,-5 23,-7 36,-7 21,0 38,5 53,17 7,6 13,13 17,21 5,9 8,18 8,27 0,7 -2,13 -5,17 -2,5 -6,7 -11,7zm-72 -31l16 0c7,0 11,-3 11,-9 0,-6 -2,-11 -5,-14 -4,-4 -8,-6 -14,-6 -6,0 -11,2 -14,7 -3,5 -5,9 -5,14 0,3 1,5 2,6 2,2 5,2 9,2z"/>
  <path id="2" class="fil12" d="M1858 527c6,0 9,4 9,13 0,0 0,1 0,3 0,1 0,3 0,4 0,6 1,9 5,9 2,0 5,-3 8,-7 6,-7 14,-12 23,-16 9,-4 18,-6 27,-6 18,0 31,6 38,20 3,5 5,7 7,7 1,0 4,-2 8,-7 14,-13 30,-20 48,-20 14,0 26,4 35,11 9,8 13,20 13,37 0,3 0,9 0,17 0,3 0,11 0,26 0,9 0,15 0,19 0,2 0,4 0,5 0,7 2,13 6,18 3,3 4,5 5,6 0,1 1,3 1,4 0,14 -17,21 -49,21 -15,0 -26,-1 -35,-5 -9,-3 -14,-8 -14,-14 0,-2 1,-3 1,-5 1,-1 3,-4 7,-9 3,-4 5,-19 5,-44 0,-15 -1,-25 -3,-31 -3,-7 -8,-10 -15,-10 -3,0 -7,1 -9,3 -3,3 -5,5 -6,9 -1,4 -1,14 -1,31 0,18 0,29 1,33 1,4 4,10 9,17 1,1 1,3 1,6 0,13 -17,19 -51,19 -20,0 -33,-1 -41,-4 -5,-3 -8,-7 -8,-13 0,-3 0,-5 1,-6 1,-1 3,-3 7,-7 3,-3 4,-5 5,-7 1,-2 1,-5 1,-11 1,-12 2,-24 2,-36 0,-21 -6,-32 -17,-32 -8,0 -13,5 -14,14 -2,8 -2,21 -2,37 0,12 0,19 1,23 0,4 1,8 4,12 2,4 3,8 3,11 0,7 -4,12 -14,15 -11,3 -23,4 -36,4 -17,0 -29,-1 -37,-4 -8,-2 -11,-7 -11,-12 0,-3 0,-4 1,-6 1,-1 3,-4 7,-7 5,-5 8,-11 9,-19 1,-13 1,-27 1,-41 0,-11 0,-18 -1,-22 -1,-4 -3,-7 -7,-10 -3,-2 -5,-4 -6,-6 -1,-1 -1,-3 -1,-5 0,-7 5,-13 17,-17 27,-10 48,-15 62,-15z"/>
  <path id="3" class="fil12" d="M2189 475l-2 64c0,1 0,3 0,3 0,3 1,4 2,4 1,0 3,-2 7,-5 12,-10 26,-15 42,-15 15,0 28,5 40,16 14,14 22,32 22,54 0,32 -12,57 -36,76 -17,14 -36,20 -59,20 -12,0 -22,-1 -31,-4 -9,-3 -19,-8 -30,-15 -1,-1 -3,-1 -4,-1 -1,0 -4,1 -10,3 -2,1 -6,2 -10,2 -6,0 -10,-3 -10,-7 0,-1 1,-3 1,-5 2,-7 4,-16 5,-26 0,-11 1,-27 1,-50l0 -45c0,-11 -1,-18 -2,-21 -1,-2 -3,-5 -7,-6 -6,-3 -10,-5 -12,-7 -2,-3 -3,-6 -3,-9 0,-8 8,-15 23,-22 9,-3 19,-7 32,-9 13,-3 24,-5 33,-5 5,0 8,4 8,10zm14 100c-6,0 -10,2 -13,6 -2,3 -3,9 -3,18 0,26 1,43 3,52 1,8 6,12 14,12 8,0 14,-3 18,-10 4,-6 6,-16 6,-29 0,-19 -4,-33 -10,-42 -4,-4 -9,-7 -15,-7z"/>
  <path id="4" class="fil12" d="M2401 535l0 88c0,19 6,29 18,29 4,0 7,-1 10,-3 3,-2 5,-4 6,-7 3,-5 4,-17 4,-35 0,-17 -1,-30 -2,-36 -1,-3 -1,-5 -2,-6 -1,-1 -4,-3 -7,-4 -6,-4 -9,-8 -9,-13 0,-6 5,-11 16,-14 20,-5 40,-7 60,-7 11,0 16,6 16,17 0,1 0,4 0,8 0,5 0,11 0,19l0 72c0,3 3,7 9,10 6,2 8,6 8,11 0,10 -11,17 -35,23 -13,3 -26,4 -39,4 -5,0 -9,0 -11,-1 -2,-2 -3,-4 -3,-7 -1,-7 -3,-11 -6,-11 -2,0 -3,1 -4,1 -1,1 -4,3 -10,7 -11,7 -22,11 -35,11 -21,0 -36,-6 -44,-18 -8,-10 -11,-27 -11,-51 0,-9 0,-16 0,-23 0,-3 0,-6 0,-7 0,-10 -1,-16 -3,-21 -1,-4 -4,-8 -9,-10 -4,-2 -7,-4 -8,-5 -1,-2 -2,-4 -2,-6 0,-8 7,-14 19,-16 21,-5 43,-7 64,-7 7,0 10,2 10,8z"/>
  <path id="5" class="fil12" d="M2614 527c5,0 9,0 10,2 1,2 3,7 4,16 0,4 2,7 5,7 2,0 4,-2 6,-5 9,-13 20,-20 34,-20 10,0 18,3 24,9 3,4 6,8 8,13 2,4 3,9 3,14 0,5 -2,10 -4,16 -2,5 -5,9 -9,13 -7,6 -16,10 -26,10 -5,0 -10,-1 -14,-3 -4,-2 -8,-6 -15,-12 -2,-2 -4,-4 -6,-4 -3,0 -5,2 -6,6 -1,3 -1,10 -1,21 0,17 0,28 2,34 0,3 1,5 3,7 1,1 4,2 8,3 10,3 15,8 15,16 0,4 -1,8 -5,11 -3,4 -7,6 -12,7 -11,2 -26,3 -46,3 -19,0 -34,-1 -44,-5 -9,-3 -13,-8 -13,-16 0,-5 3,-10 9,-15 4,-2 6,-4 7,-5 1,-2 2,-4 2,-7 2,-10 3,-29 3,-55 0,-5 -1,-9 -2,-11 -1,-2 -3,-4 -6,-5 -8,-3 -12,-7 -12,-13 0,-5 3,-10 8,-14 6,-3 15,-7 27,-11 17,-5 31,-7 43,-7z"/>
  <path id="6" class="fil12" d="M3010 575l31 66c3,6 6,10 8,12 1,2 4,4 9,4 7,1 11,5 11,12 0,8 -5,14 -14,17 -10,4 -25,5 -47,5 -25,0 -43,-1 -55,-3 -5,-1 -9,-3 -13,-6 -3,-3 -4,-6 -4,-11 0,-3 0,-5 2,-7 2,-2 5,-4 10,-5 5,-2 7,-5 7,-9 0,-7 -4,-11 -13,-13 -9,-1 -23,-2 -40,-2 -14,0 -23,1 -26,3 -2,1 -3,3 -4,6 -2,3 -2,5 -2,8 0,2 0,4 1,5 1,0 4,1 9,3 7,2 10,6 10,12 0,13 -16,19 -47,19 -17,0 -30,-1 -38,-3 -8,-3 -12,-8 -12,-15 0,-4 1,-6 3,-8 2,-2 5,-4 9,-5 7,-3 12,-6 16,-11 4,-4 9,-14 15,-29l24 -50c8,-19 14,-32 17,-42 2,-9 4,-18 4,-27 0,-9 1,-15 2,-19 1,-4 3,-7 7,-11 7,-7 17,-11 28,-11 11,0 22,4 32,13 14,12 34,46 60,102zm-113 21l32 0c6,0 9,-1 9,-4 0,-4 -4,-12 -13,-26 -3,-7 -6,-11 -8,-13 -2,-3 -4,-4 -6,-4 -4,0 -7,4 -10,11 0,1 -2,5 -5,12 -4,11 -6,18 -6,20 0,2 2,4 7,4z"/>
  <path id="7" class="fil12" d="M3103 611l0 -86c0,-11 -1,-18 -2,-21 -2,-3 -6,-5 -13,-7 -9,-3 -14,-8 -14,-15 0,-4 2,-8 6,-11 4,-2 10,-4 18,-4 2,0 9,0 19,1l10 0c18,0 29,0 32,-1 3,0 14,-1 33,-3 6,0 12,0 17,0 18,0 34,3 48,10 24,13 36,33 36,60 0,23 -8,40 -25,54 -16,12 -36,18 -58,18 -6,0 -13,0 -22,-1 -4,0 -7,0 -8,0 -3,0 -5,2 -5,5l0 1 1 27c1,5 2,9 3,12 2,2 5,5 11,7 7,4 10,8 10,13 0,7 -5,12 -15,16 -11,3 -26,5 -45,5 -40,0 -60,-7 -60,-21 0,-3 1,-5 3,-7 1,-2 5,-4 12,-7 4,-3 6,-5 7,-9 0,-4 1,-16 1,-36zm73 -106l0 55c0,4 1,7 3,8 3,1 7,2 12,2 7,0 13,-2 18,-6 7,-6 11,-15 11,-29 0,-14 -4,-24 -13,-31 -5,-4 -11,-6 -18,-6 -8,0 -13,3 -13,7z"/>
  <path id="8" class="fil12" d="M3331 611l0 -86c0,-11 0,-18 -2,-21 -2,-3 -6,-5 -12,-7 -10,-3 -15,-8 -15,-15 0,-4 2,-8 6,-11 4,-2 10,-4 18,-4 3,0 9,0 19,1l10 0c18,0 29,0 32,-1 3,0 14,-1 33,-3 6,0 12,0 17,0 18,0 34,3 48,10 24,13 36,33 36,60 0,23 -8,40 -25,54 -16,12 -35,18 -58,18 -6,0 -13,0 -21,-1 -5,0 -8,0 -9,0 -3,0 -4,2 -4,5l0 1 1 27c0,5 1,9 3,12 1,2 5,5 10,7 7,4 11,8 11,13 0,7 -6,12 -16,16 -10,3 -25,5 -44,5 -41,0 -61,-7 -61,-21 0,-3 1,-5 3,-7 2,-2 6,-4 12,-7 4,-3 6,-5 7,-9 1,-4 1,-16 1,-36zm74 -106l0 55c0,4 1,7 3,8 3,1 7,2 11,2 8,0 14,-2 19,-6 7,-6 10,-15 10,-29 0,-14 -4,-24 -12,-31 -5,-4 -12,-6 -19,-6 -8,0 -12,3 -12,7z"/>
  <path id="9" class="fil12" d="M3631 461c11,0 26,3 44,8 2,1 4,1 5,1 1,0 4,-1 10,-3 2,0 3,-1 5,-1 8,0 15,6 23,18 9,11 13,22 13,33 0,6 -2,11 -6,15 -4,4 -8,6 -13,6 -5,0 -8,-1 -11,-2 -2,-2 -8,-7 -18,-16 -13,-12 -26,-18 -38,-18 -6,0 -11,1 -15,4 -3,3 -5,7 -5,12 0,9 8,16 25,21 22,7 37,12 43,15 28,13 41,33 41,59 0,23 -9,42 -28,57 -19,15 -45,22 -76,22 -14,0 -28,-1 -44,-5 -15,-3 -26,-7 -33,-11 -5,-4 -10,-11 -14,-23 -4,-12 -6,-23 -6,-34 0,-5 1,-9 3,-12 3,-4 6,-5 10,-5 4,0 8,2 12,6 2,2 8,10 16,23 4,6 10,11 19,15 9,4 18,6 27,6 8,0 15,-1 20,-4 5,-3 7,-7 7,-12 0,-4 -2,-8 -5,-11 -4,-3 -11,-6 -20,-9 -15,-5 -27,-9 -35,-13 -8,-4 -16,-10 -23,-16 -17,-15 -26,-32 -26,-52 0,-9 3,-18 7,-28 5,-9 11,-16 19,-23 18,-15 41,-23 67,-23z"/>
 </g>
</svg>
