<?xml version="1.0" encoding="UTF-8"?>
<!DOCTYPE svg PUBLIC "-//W3C//DTD SVG 1.1//EN" "http://www.w3.org/Graphics/SVG/1.1/DTD/svg11.dtd">
<!-- Creator: CorelDRAW X7 -->
<svg xmlns="http://www.w3.org/2000/svg" xml:space="preserve" width="11.1277cm" height="2.48592cm" version="1.1" style="shape-rendering:geometricPrecision; text-rendering:geometricPrecision; image-rendering:optimizeQuality; fill-rule:evenodd; clip-rule:evenodd"
viewBox="0 0 15244 3406"
 xmlns:xlink="http://www.w3.org/1999/xlink">
 <defs>
  <style type="text/css">
   <![CDATA[
    .fil1 {fill:#00AFEF}
    .fil12 {fill:black}
    .fil10 {fill:#007445}
    .fil11 {fill:#014083}
    .fil5 {fill:#0A689E}
    .fil4 {fill:#5D236D}
    .fil6 {fill:#913672}
    .fil9 {fill:#E10A15}
    .fil8 {fill:#FC7E41}
    .fil7 {fill:#FFF100}
    .fil3 {fill:white}
    .fil2 {fill:#FEFEFE;fill-rule:nonzero}
    .fil0 {fill:#373435;fill-rule:nonzero}
   ]]>
  </style>
 </defs>
 <g id="Layer_x0020_1">
  <metadata id="CorelCorpID_0Corel-Layer"/>
  <path class="fil0" d="M4159 1216l0 -345c0,-45 -3,-73 -9,-85 -7,-12 -23,-22 -50,-29 -40,-12 -59,-31 -59,-59 0,-20 8,-35 24,-46 17,-10 41,-16 73,-16 10,0 36,1 78,2l39 0c73,0 116,0 128,-1 13,-1 57,-5 134,-12 25,-2 48,-4 70,-4 71,0 135,15 191,44 98,51 147,132 147,242 0,90 -34,161 -103,215 -64,50 -142,75 -234,75 -23,0 -51,-1 -85,-4 -18,-1 -29,-2 -34,-2 -12,0 -19,7 -19,22l0 3 5 108c1,21 5,37 12,47 6,11 20,21 41,32 29,15 43,32 43,50 0,28 -21,49 -63,64 -42,14 -102,22 -179,22 -162,0 -243,-28 -243,-84 0,-13 4,-23 11,-30 7,-7 23,-17 49,-30 16,-8 25,-20 28,-35 2,-15 4,-63 5,-144zm296 -428l0 223c0,17 4,27 11,31 13,6 29,9 48,9 29,0 53,-8 73,-24 29,-24 43,-63 43,-117 0,-57 -17,-98 -50,-124 -21,-16 -47,-24 -76,-24 -33,0 -49,9 -49,26z"/>
  <path id="1" class="fil0" d="M5328 909l0 356c0,76 25,114 76,114 12,0 25,-3 37,-11 12,-7 21,-15 26,-26 9,-21 14,-68 14,-141 0,-72 -2,-120 -7,-147 -2,-11 -5,-19 -9,-24 -5,-5 -13,-11 -25,-17 -25,-13 -38,-30 -38,-50 0,-27 22,-46 65,-57 81,-20 161,-30 241,-30 44,0 66,24 66,71 0,4 0,14 -1,29 -1,21 -1,47 -2,77l0 290c0,15 13,28 38,40 22,11 33,26 33,46 0,40 -47,70 -140,92 -55,12 -108,19 -159,19 -21,0 -36,-3 -43,-8 -8,-4 -12,-14 -14,-28 -2,-27 -10,-40 -25,-40 -5,0 -10,1 -14,3 -4,3 -18,11 -40,27 -44,30 -92,45 -143,45 -84,0 -143,-24 -178,-73 -29,-41 -44,-109 -44,-206 0,-35 0,-66 1,-92 0,-14 0,-24 0,-30 0,-37 -4,-65 -10,-83 -7,-17 -20,-31 -37,-41 -18,-9 -28,-16 -33,-22 -4,-5 -7,-12 -7,-21 0,-33 25,-56 76,-67 85,-18 171,-28 257,-28 26,0 39,11 39,33z"/>
  <path id="2" class="fil0" d="M6186 876c24,0 38,3 43,10 5,6 9,27 13,63 2,19 9,28 21,28 8,0 17,-6 25,-19 35,-54 80,-82 137,-82 40,0 72,13 98,39 12,13 22,29 30,49 8,20 12,39 12,57 0,21 -5,42 -15,64 -9,21 -22,39 -37,53 -28,27 -63,40 -103,40 -23,0 -41,-3 -56,-12 -15,-7 -35,-23 -60,-47 -9,-9 -18,-14 -25,-14 -13,0 -21,7 -24,20 -4,14 -6,43 -6,88 0,66 2,111 7,135 3,13 8,22 13,27 6,5 17,10 35,15 40,12 59,33 59,62 0,18 -6,34 -19,47 -12,14 -29,22 -50,27 -42,9 -104,13 -186,13 -77,0 -136,-7 -176,-20 -36,-13 -54,-34 -54,-64 0,-23 13,-43 39,-61 13,-8 22,-16 27,-23 4,-7 8,-16 9,-28 7,-40 11,-113 11,-221 0,-20 -2,-34 -7,-43 -4,-8 -13,-15 -26,-20 -31,-12 -47,-30 -47,-53 0,-21 11,-40 32,-55 22,-15 58,-30 108,-45 68,-20 125,-30 172,-30z"/>
  <path id="3" class="fil0" d="M6961 871c76,0 141,19 193,58 28,20 48,44 59,70 11,27 17,63 17,110l-1 98c0,68 5,111 14,132 5,9 10,15 14,18 4,3 14,5 28,7 14,2 21,12 21,28 0,21 -9,43 -26,66 -17,22 -38,41 -65,57 -33,19 -67,29 -103,29 -46,0 -82,-16 -109,-48 -9,-11 -18,-17 -26,-17 -9,0 -20,6 -35,17 -43,32 -93,48 -149,48 -57,0 -104,-13 -139,-37 -23,-16 -42,-38 -55,-64 -14,-26 -21,-53 -21,-81 0,-46 19,-86 56,-121 57,-55 143,-83 257,-84 26,0 41,-2 48,-7 7,-5 10,-17 10,-35 0,-47 -5,-80 -14,-101 -10,-21 -26,-31 -48,-31 -13,0 -25,4 -35,11 -10,8 -23,23 -38,44 -39,55 -80,83 -123,83 -21,0 -39,-6 -52,-19 -14,-12 -20,-29 -20,-50 0,-21 8,-42 25,-63 17,-21 40,-39 69,-55 79,-42 161,-63 248,-63zm-44 380c-19,0 -36,8 -50,24 -15,16 -22,35 -22,56 0,22 5,38 15,51 10,13 24,20 40,20 35,0 53,-30 53,-89 0,-24 -3,-40 -8,-49 -5,-8 -14,-12 -28,-13z"/>
  <path id="4" class="fil0" d="M7822 629l337 0c69,0 119,-1 150,-4 31,-3 62,-9 92,-17 9,-3 16,-4 21,-4 23,0 43,12 61,36 29,40 43,88 43,145 0,28 -6,51 -18,67 -12,17 -29,25 -49,25 -15,0 -26,-3 -34,-9 -8,-6 -19,-19 -33,-40 -19,-29 -44,-49 -73,-59 -30,-9 -78,-14 -146,-14 -50,0 -81,9 -92,27 -5,9 -9,22 -10,39 -1,16 -2,57 -2,123 0,27 5,43 14,49 8,7 31,10 69,10 18,0 31,-4 40,-11 8,-8 13,-22 15,-41 4,-26 7,-43 10,-53 3,-9 9,-17 18,-24 9,-8 20,-12 32,-12 18,0 33,8 46,25 9,13 17,36 24,68 6,32 9,66 9,100 0,70 -11,126 -32,171 -12,24 -30,36 -54,36 -15,0 -25,-4 -31,-12 -5,-7 -10,-23 -13,-47 -7,-50 -36,-74 -87,-74 -19,0 -33,6 -40,18 -7,13 -11,36 -11,69 0,21 2,48 4,80 3,33 6,55 9,65 4,13 15,22 33,27 18,5 48,8 91,8 65,0 115,-9 148,-25 33,-17 61,-48 82,-92 12,-26 23,-43 33,-51 10,-9 22,-14 38,-14 19,0 34,9 46,24 12,17 18,37 18,61 0,26 -7,59 -20,98 -14,40 -31,75 -50,105 -10,15 -19,25 -25,30 -7,5 -15,8 -25,8 -9,0 -21,-2 -36,-4 -29,-5 -66,-9 -113,-10l-557 0c-22,0 -39,-5 -52,-15 -12,-10 -18,-24 -18,-42 0,-12 3,-22 8,-27 5,-6 17,-13 36,-22 13,-6 23,-12 29,-21 6,-8 11,-20 15,-37 14,-66 22,-155 22,-267 0,-169 -11,-276 -32,-320 -4,-9 -9,-15 -14,-18 -6,-4 -17,-8 -33,-13 -25,-7 -38,-24 -38,-50 0,-14 5,-26 13,-37 8,-11 19,-18 33,-22 17,-4 50,-6 99,-6z"/>
  <path id="5" class="fil0" d="M9411 1114l9 231c1,18 4,31 8,39 5,8 18,24 41,48 6,7 10,17 10,30 0,28 -18,49 -52,60 -35,11 -97,17 -186,17 -60,0 -103,-5 -128,-16 -25,-11 -38,-28 -38,-53 0,-9 1,-15 4,-19 2,-4 11,-15 26,-31 17,-18 26,-80 26,-184 0,-60 -7,-105 -21,-134 -11,-23 -32,-35 -63,-35 -29,0 -49,10 -60,29 -11,18 -17,53 -17,102l0 130c0,26 2,44 5,53 3,10 14,29 33,56 5,8 7,17 7,27 0,26 -18,45 -54,57 -36,13 -92,19 -168,19 -122,0 -183,-26 -183,-76 0,-10 2,-18 6,-24 3,-5 12,-13 26,-23 12,-8 19,-18 22,-29 3,-11 6,-37 9,-79 3,-50 4,-102 4,-157 0,-30 -2,-50 -7,-59 -4,-10 -18,-21 -39,-35 -19,-12 -29,-26 -29,-43 0,-18 8,-32 23,-43 16,-11 47,-25 95,-43 42,-15 82,-27 121,-37 39,-11 66,-16 81,-16 13,0 24,5 33,15 9,9 13,21 13,34 0,1 0,7 0,16 -1,4 -1,7 -1,10 0,20 9,31 26,31 11,0 22,-8 34,-25 37,-54 92,-81 164,-81 55,0 102,14 142,43 27,21 47,45 58,73 11,27 17,68 20,122z"/>
  <path id="6" class="fil0" d="M10215 836c11,0 20,6 29,19 8,12 12,27 12,44 0,17 -5,38 -17,61 -11,22 -24,41 -40,54 -10,9 -15,16 -15,21 0,1 1,7 1,16 2,9 2,17 2,25 0,52 -17,96 -52,131 -32,32 -72,56 -122,74 -50,17 -105,26 -164,26 -14,0 -29,-1 -43,-2 -11,-2 -20,-2 -26,-2 -23,0 -35,11 -35,34 0,15 8,27 23,36 15,8 36,12 61,12 18,0 44,-2 78,-7 72,-10 125,-15 159,-15 51,0 92,9 120,26 23,13 41,31 54,55 14,23 20,49 20,76 0,44 -16,87 -48,129 -39,49 -96,85 -171,109 -58,18 -126,27 -203,27 -97,0 -176,-14 -237,-44 -28,-14 -50,-33 -67,-55 -16,-23 -25,-47 -25,-71 0,-18 5,-33 15,-48 9,-14 21,-25 35,-31 13,-5 20,-11 20,-17 0,-5 -5,-11 -16,-21 -35,-29 -53,-60 -53,-91 0,-21 9,-43 25,-65 17,-22 38,-40 63,-52 11,-5 16,-11 16,-16 0,-6 -7,-15 -20,-27 -45,-42 -68,-90 -68,-146 0,-29 9,-57 24,-84 17,-27 39,-50 67,-68 71,-46 149,-70 235,-70 34,0 72,5 114,14 40,8 67,11 82,11 48,0 95,-18 143,-56 10,-8 18,-12 24,-12zm-357 136c-22,0 -39,8 -53,25 -13,17 -20,39 -20,66 0,48 8,86 22,114 15,28 34,43 57,43 23,0 42,-9 55,-27 14,-18 21,-41 21,-71 0,-47 -7,-83 -22,-110 -14,-26 -34,-39 -60,-40zm-143 598c-11,0 -16,6 -16,19 0,26 14,47 42,63 28,16 64,24 109,24 43,0 76,-6 100,-17 25,-12 37,-28 37,-48 0,-11 -5,-21 -14,-28 -9,-8 -20,-12 -34,-12 -7,0 -17,1 -30,3 -25,4 -52,6 -82,6 -23,0 -44,-1 -65,-3 -15,-2 -27,-4 -37,-6 -4,-1 -8,-1 -10,-1z"/>
  <path id="7" class="fil0" d="M10660 917l0 382c0,30 2,52 8,66 5,14 17,27 33,39 14,9 23,18 27,24 5,7 7,16 7,26 0,57 -71,85 -215,85 -77,0 -138,-6 -183,-18 -15,-5 -28,-12 -37,-23 -9,-11 -14,-24 -14,-38 0,-12 2,-21 7,-27 5,-7 17,-17 37,-32 13,-10 23,-26 29,-49 6,-23 8,-57 8,-102 0,-14 -1,-42 -3,-81 -1,-40 -3,-63 -4,-69 -2,-18 -15,-32 -37,-42 -27,-12 -40,-29 -40,-52 0,-28 17,-48 53,-62 49,-19 101,-35 157,-48 57,-13 100,-20 131,-20 24,0 36,14 36,41zm-130 -288c38,0 68,7 90,22 23,14 34,33 34,57 0,34 -17,60 -51,80 -53,31 -118,47 -194,47 -32,0 -57,-6 -76,-19 -25,-15 -38,-37 -38,-65 0,-38 27,-67 81,-89 55,-22 106,-33 154,-33z"/>
  <path id="8" class="fil0" d="M11571 1114l9 231c1,18 4,31 8,39 5,8 18,24 41,48 6,7 10,17 10,30 0,28 -18,49 -52,60 -35,11 -97,17 -186,17 -60,0 -103,-5 -128,-16 -25,-11 -38,-28 -38,-53 0,-9 1,-15 4,-19 2,-4 11,-15 26,-31 17,-18 26,-80 26,-184 0,-60 -7,-105 -21,-134 -11,-23 -32,-35 -63,-35 -29,0 -50,10 -61,29 -10,18 -16,53 -16,102l0 130c0,26 2,44 5,53 3,10 14,29 32,56 5,8 8,17 8,27 0,26 -18,45 -54,57 -36,13 -92,19 -168,19 -122,0 -183,-26 -183,-76 0,-10 2,-18 6,-24 3,-5 12,-13 26,-23 12,-8 19,-18 22,-29 3,-11 6,-37 9,-79 3,-50 4,-102 4,-157 0,-30 -2,-50 -7,-59 -4,-10 -18,-21 -39,-35 -19,-12 -29,-26 -29,-43 0,-18 8,-32 23,-43 16,-11 47,-25 95,-43 42,-15 82,-27 121,-37 39,-11 66,-16 80,-16 14,0 25,5 34,15 9,9 13,21 13,34 0,1 0,7 0,16 -1,4 -1,7 -1,10 0,20 9,31 26,31 11,0 22,-8 34,-25 37,-54 92,-81 164,-81 55,0 102,14 142,43 27,21 46,45 57,73 11,27 18,68 21,122z"/>
  <path id="9" class="fil0" d="M12283 1231l-308 0c-14,0 -21,7 -21,18 0,29 16,56 47,81 31,25 64,38 99,38 21,0 45,-4 70,-13 26,-8 47,-18 64,-30 14,-10 26,-15 35,-15 11,0 23,7 33,21 11,14 17,28 17,43 0,32 -20,62 -59,91 -70,53 -150,79 -241,79 -92,0 -169,-27 -232,-80 -30,-27 -55,-59 -74,-96 -26,-49 -39,-101 -39,-156 0,-74 22,-140 67,-198 38,-51 87,-89 147,-114 45,-19 93,-28 145,-28 83,0 154,23 212,70 30,24 53,52 71,85 21,36 31,72 31,107 0,29 -6,52 -18,70 -11,19 -27,27 -46,27zm-291 -122l66 0c28,0 42,-13 42,-39 0,-24 -7,-43 -20,-58 -14,-15 -31,-22 -53,-22 -25,0 -44,9 -58,29 -13,18 -20,36 -20,54 0,13 3,23 10,28 6,5 17,8 33,8z"/>
  <path id="10" class="fil0" d="M12697 876c23,0 37,3 42,10 5,6 10,27 14,63 2,19 9,28 20,28 9,0 17,-6 25,-19 35,-54 81,-82 137,-82 40,0 73,13 98,39 12,13 22,29 30,49 8,20 12,39 12,57 0,21 -5,42 -14,64 -10,21 -22,39 -38,53 -28,27 -62,40 -103,40 -22,0 -41,-3 -56,-12 -15,-7 -35,-23 -60,-47 -9,-9 -17,-14 -25,-14 -12,0 -20,7 -24,20 -4,14 -6,43 -6,88 0,66 3,111 7,135 4,13 8,22 13,27 6,5 18,10 35,15 40,12 60,33 60,62 0,18 -7,34 -19,47 -13,14 -30,22 -51,27 -42,9 -104,13 -185,13 -78,0 -137,-7 -177,-20 -36,-13 -54,-34 -54,-64 0,-23 13,-43 39,-61 13,-8 22,-16 27,-23 5,-7 8,-16 10,-28 7,-40 10,-113 10,-221 0,-20 -2,-34 -6,-43 -5,-8 -13,-15 -27,-20 -31,-12 -46,-30 -46,-53 0,-21 11,-40 32,-55 21,-15 57,-30 108,-45 67,-20 125,-30 172,-30z"/>
  <path id="11" class="fil0" d="M13484 917l0 382c0,30 2,52 8,66 5,14 17,27 33,39 14,9 23,18 27,24 5,7 7,16 7,26 0,57 -71,85 -215,85 -77,0 -138,-6 -183,-18 -15,-5 -28,-12 -37,-23 -9,-11 -14,-24 -14,-38 0,-12 2,-21 7,-27 5,-7 17,-17 37,-32 13,-10 23,-26 29,-49 6,-23 8,-57 8,-102 0,-14 -1,-42 -3,-81 -1,-40 -3,-63 -4,-69 -2,-18 -15,-32 -37,-42 -27,-12 -40,-29 -40,-52 0,-28 17,-48 53,-62 49,-19 101,-35 157,-48 57,-13 100,-20 131,-20 24,0 36,14 36,41zm-130 -288c38,0 68,7 90,22 23,14 34,33 34,57 0,34 -17,60 -51,80 -53,31 -118,47 -194,47 -32,0 -57,-6 -76,-19 -25,-15 -38,-37 -38,-65 0,-38 27,-67 81,-89 55,-22 106,-33 154,-33z"/>
  <path id="12" class="fil0" d="M14395 1114l9 231c1,18 4,31 8,39 5,8 18,24 41,48 6,7 10,17 10,30 0,28 -18,49 -52,60 -35,11 -97,17 -186,17 -60,0 -103,-5 -128,-16 -25,-11 -38,-28 -38,-53 0,-9 1,-15 4,-19 2,-4 11,-15 26,-31 17,-18 26,-80 26,-184 0,-60 -7,-105 -21,-134 -11,-23 -32,-35 -63,-35 -29,0 -50,10 -61,29 -10,18 -16,53 -16,102l0 130c0,26 2,44 5,53 3,10 14,29 32,56 5,8 8,17 8,27 0,26 -18,45 -54,57 -36,13 -92,19 -168,19 -122,0 -183,-26 -183,-76 0,-10 2,-18 6,-24 3,-5 12,-13 26,-23 12,-8 19,-18 22,-29 3,-11 6,-37 8,-79 4,-50 5,-102 5,-157 0,-30 -2,-50 -7,-59 -4,-10 -18,-21 -39,-35 -19,-12 -29,-26 -29,-43 0,-18 8,-32 23,-43 16,-11 47,-25 95,-43 42,-15 82,-27 121,-37 39,-11 66,-16 80,-16 14,0 25,5 34,15 9,9 13,21 13,34 0,1 0,7 0,16 -1,4 -1,7 -1,10 0,20 9,31 26,31 11,0 22,-8 34,-25 37,-54 92,-81 164,-81 55,0 102,14 142,43 27,21 46,45 57,73 11,27 18,68 21,122z"/>
  <path id="13" class="fil0" d="M15199 836c11,0 20,6 29,19 8,12 12,27 12,44 0,17 -5,38 -17,61 -11,22 -24,41 -40,54 -10,9 -15,16 -15,21 0,1 0,7 1,16 2,9 2,17 2,25 0,52 -17,96 -52,131 -32,32 -73,56 -122,74 -50,17 -105,26 -164,26 -15,0 -29,-1 -43,-2 -11,-2 -20,-2 -26,-2 -23,0 -35,11 -35,34 0,15 8,27 23,36 15,8 35,12 61,12 18,0 43,-2 78,-7 72,-10 124,-15 159,-15 51,0 91,9 120,26 23,13 41,31 54,55 13,23 20,49 20,76 0,44 -16,87 -49,129 -38,49 -95,85 -170,109 -58,18 -126,27 -203,27 -98,0 -176,-14 -237,-44 -28,-14 -50,-33 -67,-55 -16,-23 -25,-47 -25,-71 0,-18 5,-33 14,-48 10,-14 22,-25 36,-31 13,-5 20,-11 20,-17 0,-5 -6,-11 -17,-21 -35,-29 -52,-60 -52,-91 0,-21 8,-43 25,-65 17,-22 38,-40 63,-52 11,-5 16,-11 16,-16 0,-6 -7,-15 -20,-27 -45,-42 -68,-90 -68,-146 0,-29 8,-57 24,-84 16,-27 39,-50 67,-68 71,-46 149,-70 234,-70 35,0 73,5 115,14 40,8 67,11 82,11 48,0 95,-18 142,-56 11,-8 19,-12 25,-12zm-357 136c-22,0 -39,8 -53,25 -13,17 -20,39 -20,66 0,48 7,86 22,114 14,28 33,43 57,43 23,0 42,-9 55,-27 14,-18 21,-41 21,-71 0,-47 -8,-83 -22,-110 -14,-26 -34,-39 -60,-40zm-143 598c-11,0 -16,6 -16,19 0,26 13,47 41,63 28,16 65,24 110,24 42,0 76,-6 100,-17 25,-12 37,-28 37,-48 0,-11 -5,-21 -14,-28 -9,-8 -20,-12 -34,-12 -7,0 -17,1 -30,3 -25,4 -52,6 -82,6 -23,0 -44,-1 -65,-3 -15,-2 -28,-4 -37,-6 -5,-1 -8,-1 -10,-1z"/>
  <rect class="fil1" x="4205" y="1817" width="8436" height="1401"/>
  <path class="fil2" d="M5395 2056c50,0 97,5 141,14 60,12 89,37 89,75 0,13 -3,22 -9,29 -5,6 -20,15 -45,28 -20,10 -33,32 -39,66 -7,34 -10,101 -10,200 0,167 4,270 13,310 3,13 7,23 14,30 6,6 17,14 33,22 29,13 43,32 43,57 0,35 -27,59 -80,72 -58,14 -128,21 -212,21 -143,0 -214,-27 -214,-81 0,-20 14,-39 42,-56 21,-13 34,-31 38,-53 8,-50 12,-156 12,-318 0,-112 -5,-184 -17,-216 -6,-18 -20,-34 -44,-48 -18,-12 -30,-22 -36,-30 -6,-8 -9,-18 -9,-30 0,-19 9,-34 27,-45 18,-11 51,-21 97,-30 54,-11 110,-17 166,-17z"/>
  <path id="1" class="fil2" d="M5950 2070l346 0c38,-1 72,-6 102,-15 13,-3 25,-5 35,-5 36,0 70,26 104,79 33,52 50,106 50,162 0,38 -12,66 -35,83 -17,14 -39,20 -63,20 -23,0 -43,-6 -60,-19 -18,-13 -34,-34 -51,-64 -15,-27 -26,-45 -34,-53 -9,-9 -19,-13 -31,-13 -16,0 -27,7 -34,20 -7,14 -11,36 -11,67l0 368c0,38 4,65 12,82 8,17 23,30 45,40 23,10 39,19 48,28 9,9 13,22 13,38 0,31 -22,55 -64,70 -43,15 -109,23 -197,23 -109,0 -189,-9 -242,-27 -44,-15 -66,-39 -66,-72 0,-18 8,-32 24,-42 3,-3 19,-8 46,-16 17,-5 28,-14 35,-28 6,-13 11,-40 15,-78 4,-34 7,-89 10,-166 3,-76 5,-142 5,-198 0,-40 -4,-68 -10,-85 -6,-16 -16,-25 -30,-25 -17,0 -33,13 -50,37 -29,45 -53,74 -72,89 -22,17 -44,25 -65,25 -24,0 -43,-8 -58,-26 -16,-18 -23,-41 -23,-68 0,-27 6,-57 18,-90 12,-32 29,-62 49,-90 33,-45 66,-67 99,-67 8,0 19,1 30,4 23,5 43,8 58,10 15,1 33,2 52,2z"/>
  <path id="2" class="fil2" d="M7210 2313c22,0 58,4 107,14 10,2 19,3 25,3 8,0 22,-4 43,-12 11,-4 19,-6 26,-6 20,0 41,13 61,39 17,20 30,43 41,68 11,24 16,45 16,63 0,18 -6,32 -19,44 -12,11 -27,17 -46,17 -15,0 -29,-3 -41,-11 -12,-7 -31,-24 -58,-49 -28,-27 -51,-41 -69,-41 -13,0 -23,5 -32,14 -9,9 -14,19 -14,31 0,22 21,42 62,61 74,33 131,69 170,109 34,33 50,74 50,122 0,61 -27,112 -80,153 -46,35 -102,53 -169,53 -17,0 -48,-3 -93,-9 -43,-5 -66,-7 -72,-7 -5,0 -12,1 -20,2 -12,2 -21,2 -27,2 -21,0 -37,-5 -49,-15 -18,-16 -34,-42 -50,-77 -15,-35 -23,-64 -23,-89 0,-41 16,-61 48,-61 12,0 23,4 34,12 10,8 31,30 64,65 18,19 33,33 45,40 12,7 24,11 38,11 14,0 26,-4 35,-12 9,-8 13,-18 13,-30 0,-20 -17,-38 -51,-54 -70,-35 -121,-71 -152,-107 -32,-37 -47,-80 -47,-128 0,-52 16,-97 48,-135 45,-53 107,-80 186,-80z"/>
  <path id="3" class="fil2" d="M8195 2673l-308 0c-14,0 -21,6 -21,18 0,28 16,55 47,80 31,25 64,38 99,38 21,0 45,-4 70,-12 26,-9 47,-19 64,-30 14,-11 26,-16 35,-16 11,0 23,7 33,21 11,14 17,28 17,43 0,32 -20,62 -59,91 -70,53 -150,79 -241,79 -92,0 -169,-27 -232,-80 -30,-27 -55,-58 -75,-96 -25,-49 -38,-101 -38,-156 0,-74 22,-140 67,-198 38,-51 87,-89 147,-114 45,-19 93,-28 145,-28 83,0 154,23 212,71 30,23 53,51 71,84 21,36 31,73 31,107 0,29 -6,52 -18,70 -11,19 -27,28 -46,28zm-291 -123l66 0c28,0 42,-13 42,-39 0,-24 -7,-43 -20,-58 -14,-15 -31,-22 -53,-22 -25,0 -44,10 -58,29 -13,18 -20,36 -20,54 0,14 3,23 10,28 6,5 17,8 33,8z"/>
  <path id="4" class="fil2" d="M8609 2317c23,0 37,3 42,10 5,6 10,27 14,63 2,19 9,29 20,29 9,0 17,-7 25,-20 35,-54 81,-82 137,-82 40,0 73,13 98,39 12,13 22,29 30,49 8,20 12,39 12,57 0,21 -5,42 -14,64 -10,21 -23,39 -38,53 -28,27 -62,40 -103,40 -22,0 -41,-3 -56,-11 -15,-8 -35,-24 -60,-48 -9,-9 -17,-14 -25,-14 -12,0 -21,7 -24,21 -4,13 -6,42 -6,87 0,66 3,111 7,135 4,13 8,22 13,27 6,5 17,10 35,16 40,11 60,32 60,61 0,18 -7,34 -19,47 -13,14 -30,22 -51,27 -42,9 -104,13 -185,13 -78,0 -137,-7 -177,-20 -36,-13 -54,-34 -54,-64 0,-23 13,-43 39,-61 13,-8 22,-16 27,-23 5,-6 8,-16 10,-28 7,-39 10,-113 10,-221 0,-20 -2,-34 -6,-42 -5,-9 -13,-16 -27,-21 -31,-12 -46,-30 -46,-53 0,-21 10,-39 32,-54 21,-15 57,-31 108,-46 67,-20 124,-30 172,-30z"/>
  <path id="5" class="fil2" d="M9726 2518l-170 331c-26,52 -49,87 -67,107 -19,20 -38,30 -59,30 -21,0 -37,-7 -50,-22 -27,-30 -50,-64 -71,-102l-186 -354c-10,-19 -20,-33 -29,-41 -10,-9 -23,-15 -39,-20 -34,-9 -50,-27 -50,-54 0,-26 20,-46 61,-58 42,-12 107,-18 195,-18 75,0 130,5 165,16 35,10 53,27 53,49 0,16 -8,31 -25,46 -10,9 -17,17 -20,21 -3,5 -5,11 -5,19 0,15 10,39 29,74 19,34 37,51 54,51 11,0 20,-5 27,-13 7,-8 20,-30 38,-64 13,-26 20,-45 20,-58 0,-11 -7,-23 -21,-38 -15,-15 -22,-30 -22,-44 0,-21 14,-36 42,-45 27,-9 73,-14 137,-14 89,0 134,19 134,58 0,22 -17,39 -48,49 -25,8 -42,16 -51,25 -9,9 -23,33 -42,69z"/>
  <path id="6" class="fil2" d="M10248 2358l0 382c0,30 3,52 9,66 5,14 16,27 33,39 13,9 22,18 27,24 5,7 7,16 7,26 0,57 -72,85 -215,85 -77,0 -138,-6 -183,-18 -16,-5 -28,-12 -37,-23 -10,-11 -15,-24 -15,-38 0,-12 3,-21 8,-27 5,-7 17,-17 37,-32 13,-10 23,-26 28,-49 6,-23 9,-57 9,-102 0,-14 -1,-42 -3,-81 -2,-40 -3,-63 -4,-69 -3,-18 -15,-32 -37,-42 -27,-12 -41,-29 -41,-52 0,-28 18,-48 53,-62 50,-19 102,-35 158,-48 56,-13 99,-20 130,-20 24,0 36,14 36,41zm-130 -288c38,0 69,8 91,22 22,14 33,33 33,57 0,34 -16,61 -50,80 -54,31 -118,47 -194,47 -32,0 -57,-6 -76,-18 -26,-16 -38,-38 -38,-66 0,-38 27,-67 81,-89 54,-22 105,-33 153,-33z"/>
  <path id="7" class="fil2" d="M10737 2313c78,0 147,19 206,58 57,37 85,84 85,139 0,38 -13,69 -39,92 -25,23 -54,34 -89,34 -36,0 -64,-13 -82,-39 -6,-9 -14,-30 -25,-64 -12,-37 -34,-55 -68,-55 -24,0 -44,10 -60,31 -17,21 -25,47 -25,78 0,52 19,99 56,140 31,32 70,49 116,49 22,0 40,-2 55,-6 15,-3 35,-11 59,-23 6,-2 13,-4 20,-4 15,0 28,7 39,21 12,14 18,30 18,49 0,20 -9,41 -25,62 -16,22 -37,41 -64,57 -57,35 -124,53 -201,53 -90,0 -167,-27 -231,-79 -81,-67 -122,-151 -122,-254 0,-99 38,-181 114,-246 72,-62 160,-93 263,-93z"/>
  <path id="8" class="fil2" d="M11678 2673l-309 0c-14,0 -20,6 -20,18 0,28 15,55 46,80 31,25 64,38 99,38 22,0 45,-4 70,-12 26,-9 47,-19 64,-30 15,-11 27,-16 35,-16 12,0 23,7 34,21 11,14 16,28 16,43 0,32 -19,62 -59,91 -70,53 -150,79 -241,79 -92,0 -169,-27 -231,-80 -30,-27 -55,-58 -75,-96 -26,-49 -39,-101 -39,-156 0,-74 22,-140 67,-198 39,-51 88,-89 147,-114 45,-19 93,-28 145,-28 84,0 154,23 213,71 29,23 53,51 71,84 20,36 31,73 31,107 0,29 -7,52 -18,70 -12,19 -28,28 -46,28zm-292 -123l67 0c28,0 41,-13 41,-39 0,-24 -6,-43 -20,-58 -13,-15 -31,-22 -53,-22 -25,0 -44,10 -58,29 -13,18 -20,36 -20,54 0,14 3,23 10,28 6,5 17,8 33,8z"/>
  <g id="_2691397300192">
   <path class="fil3" d="M848 1592c-12,287 49,633 131,903 72,235 185,476 325,676 4,6 10,14 13,20 -45,-4 -223,-74 -261,-92 -99,-46 -138,-67 -229,-125 -37,-23 -70,-48 -103,-73l-61 -49c-5,-5 -8,-6 -12,-11 -5,-4 -7,-6 -11,-10 -4,-3 -8,-7 -12,-11 -26,-22 -64,-62 -88,-88l-60 -73c-15,-19 -14,-16 -14,-32 9,-294 172,-664 315,-922 4,-7 58,-107 67,-113zm170 635l105 104c12,12 118,103 133,115 8,6 13,10 20,16 125,100 239,176 379,259 114,68 255,134 382,183 121,47 253,86 383,112 14,3 51,7 60,12 -3,4 -7,6 -12,8 -5,3 -8,5 -13,8 -9,5 -18,10 -28,16 -125,68 -295,128 -434,159 -145,32 -316,45 -467,27 -10,-2 -29,-1 -36,-7 -18,-13 -82,-96 -95,-116 -58,-85 -112,-173 -156,-268 -18,-39 -37,-77 -53,-118 -36,-91 -61,-151 -93,-247 -9,-30 -72,-231 -75,-263zm573 331c41,-1 85,1 127,-1 120,-3 237,-16 355,-34 262,-39 560,-127 792,-243 91,-45 204,-107 287,-165 12,-8 27,-20 38,-26 0,19 -32,113 -40,135 -15,43 -32,86 -51,126 -19,41 -37,79 -59,118 -41,75 -87,148 -139,214 -14,17 -26,33 -39,49 -22,26 -62,69 -85,91l-45 44c-15,13 -32,28 -48,40l-37 30c-7,5 -10,4 -20,4 -98,-1 -212,-29 -301,-52 -160,-43 -363,-127 -507,-202l-227 -127c0,0 0,0 -1,-1zm725 -259l115 -131c65,-78 125,-159 182,-244 116,-171 215,-357 292,-557 43,-111 89,-264 111,-384 2,-12 8,-51 12,-58 9,8 52,91 60,110 9,19 18,38 27,58 85,199 138,403 139,625 0,24 -4,185 -16,198 -10,12 -56,50 -67,59 -84,68 -219,145 -318,192 -155,74 -327,139 -493,185 -21,6 -119,35 -133,35l89 -88zm-83 -448c27,0 53,0 79,0 25,0 31,3 40,-28 3,-9 -1,-7 41,-7 -4,72 -52,120 -104,141 -16,7 -25,5 -44,5 -23,0 -44,4 -60,-13 -9,-9 -5,-15 -10,-17 -12,-3 -19,12 -38,23 -17,9 -31,7 -52,7 -27,0 -50,3 -73,-17 -8,-8 -6,-9 -11,-19 -7,4 -16,14 -24,20 -8,6 -19,14 -32,16 -14,1 -30,0 -41,-5 -13,-6 -14,-19 -12,-35 4,-38 37,-111 44,-141l-88 0c-5,23 -15,51 -22,73 -8,24 -17,47 -29,66 -9,15 -31,35 -55,40 -19,4 -43,3 -56,-12 -9,-10 -2,-14 -9,-15 -16,-4 -14,8 -32,21 -15,10 -27,8 -47,8 -15,0 -38,1 -52,-2 -25,-7 -24,-22 -29,-26 -12,11 -15,15 -32,23 -16,8 -86,5 -108,5 -14,0 -44,1 -56,-1l36 -110 183 0 56 -168 36 -1 -54 169 101 0 54 -168 34 -1 -51 169c14,0 27,0 40,0 19,0 21,-1 30,-12 9,-10 20,-40 23,-58l-29 0 40 -124 101 0 0 25 108 1 -32 97 -26 1 -22 70c67,1 70,10 90,-39 12,-32 19,-65 33,-95 21,-43 41,-34 94,-34 21,0 42,-1 64,0 24,0 21,-12 32,-33l35 0 -64 201zm-962 -350l387 1c-4,23 -17,65 -25,92 -2,10 -1,11 -8,16l-262 163c-17,10 -15,8 -39,8l-143 0 -59 181 -38 0 116 -358c-12,-2 -158,-1 -183,-1 -10,0 -20,2 -27,-2 -3,-2 -6,-5 -9,-7 -4,-2 -6,-2 -11,-5l29 -116 26 0 -3 29 210 0 19 -58 37 0 -17 57zm-893 981c-8,-10 -38,-66 -46,-81 -14,-28 -27,-57 -41,-87 -82,-186 -139,-413 -139,-623 0,-46 0,-79 4,-125l8 -71c2,-6 8,-11 13,-15l55 -47c86,-70 221,-147 326,-197 177,-85 345,-143 534,-196 25,-7 59,-17 85,-21l-105 107c-11,12 -22,25 -33,38 -224,253 -419,556 -538,875 -40,106 -74,213 -99,326 -3,12 -24,116 -24,117zm-163 -1165c1,-15 14,-54 19,-69 17,-59 48,-136 72,-191 54,-124 148,-278 237,-380l40 -47c8,-7 13,-15 22,-22 22,-22 41,-43 66,-65 9,-8 86,-77 98,-77 102,0 217,27 308,51 94,25 179,58 266,91 85,34 166,74 245,113 40,20 79,41 116,62l112 64c-16,2 -45,-1 -63,0 -21,0 -43,1 -64,1 -41,1 -82,4 -123,7 -448,37 -896,165 -1274,410l-77 52zm712 -941c0,0 1,-1 1,-1l24 -14c69,-40 127,-64 202,-95 211,-87 493,-136 725,-106 33,5 31,-2 57,28 13,15 26,29 38,46 96,124 184,284 245,433 33,80 64,159 92,246 14,42 28,85 40,129 8,27 33,112 36,134 -8,-4 -28,-28 -36,-36 -27,-26 -82,-80 -110,-102 -3,-3 -5,-6 -9,-9l-29 -24c-29,-27 -84,-70 -116,-95 -45,-35 -79,-58 -123,-90 -29,-21 -97,-66 -127,-84 -30,-18 -58,-35 -88,-53 -51,-30 -131,-71 -186,-97 -142,-68 -254,-111 -408,-155 -39,-12 -129,-34 -171,-41 -11,-2 -52,-9 -59,-12l2 -2zm1632 1356c0,-270 -61,-600 -143,-852 -58,-180 -135,-357 -230,-515 -16,-26 -31,-52 -48,-77l-49 -73c20,1 112,33 136,41 156,55 333,151 459,250 14,12 62,49 73,61l68 64c7,8 14,14 22,22l81 96c11,14 12,9 11,32 -1,101 -28,211 -52,302 -54,200 -163,443 -265,622l-48 85c-3,4 -15,24 -16,26l1 -84zm-910 -1690c-195,9 -343,37 -521,101 -77,28 -207,88 -281,135 -81,51 -141,91 -212,151 -93,79 -180,168 -254,266 -8,10 -14,19 -22,30 -15,20 -28,39 -42,61 -189,290 -285,604 -275,972 4,168 41,365 101,519 19,51 38,101 62,147 45,88 59,115 113,198 34,53 72,100 111,149l24 28c12,11 38,44 50,54l92 90c24,23 100,82 129,104 289,215 673,331 1034,317 252,-10 466,-68 666,-163 93,-45 236,-131 318,-201 20,-18 52,-41 70,-60 9,-9 27,-23 41,-37l77 -79c8,-9 17,-18 25,-28 15,-19 31,-36 47,-56 35,-44 56,-75 87,-120 54,-80 104,-173 145,-271 185,-435 172,-942 -34,-1367 -23,-48 -46,-92 -72,-135 -23,-37 -58,-92 -84,-125 -12,-16 -32,-45 -44,-59l-36 -42c-2,-3 -3,-4 -5,-6l-56 -62c-9,-10 -18,-18 -26,-26 -10,-9 -17,-18 -27,-27l-82 -73c-4,-4 -9,-7 -14,-11l-73 -57c-55,-40 -99,-67 -157,-101l-68 -37c-32,-15 -74,-37 -107,-50 -25,-10 -49,-19 -74,-29 -195,-71 -416,-110 -626,-100z"/>
   <path class="fil4" d="M1018 2227c3,32 66,233 75,263 32,96 57,156 93,247 16,41 35,79 53,118 44,95 98,183 156,268 13,20 77,103 95,116 7,6 26,5 36,7 151,18 322,5 467,-27 139,-31 309,-91 434,-159 10,-6 19,-11 28,-16 5,-3 8,-5 13,-8 5,-2 9,-4 12,-8 -9,-5 -46,-9 -60,-12 -130,-26 -262,-65 -383,-112 -127,-49 -268,-115 -382,-183 -140,-83 -254,-159 -379,-259 -7,-6 -12,-10 -20,-16 -15,-12 -121,-103 -133,-115l-105 -104z"/>
   <path class="fil5" d="M2227 2387c14,0 112,-29 133,-35 166,-46 338,-111 493,-185 99,-47 234,-124 318,-192 11,-9 57,-47 67,-59 12,-13 16,-174 16,-198 -1,-222 -54,-426 -139,-625 -9,-20 -18,-39 -27,-58 -8,-19 -51,-102 -60,-110 -4,7 -10,46 -12,58 -22,120 -68,273 -111,384 -77,200 -176,386 -292,557 -57,85 -117,166 -182,244l-115 131 -89 88z"/>
   <path class="fil6" d="M848 1592c-9,6 -63,106 -67,113 -143,258 -306,628 -315,922 0,16 -1,13 14,32l60 73c24,26 62,66 88,88 4,4 8,8 12,11 4,4 6,6 11,10 4,5 7,6 12,11l61 49c33,25 66,50 103,73 91,58 130,79 229,125 38,18 216,88 261,92 -3,-6 -9,-14 -13,-20 -140,-200 -253,-441 -325,-676 -82,-270 -143,-616 -131,-903z"/>
   <path class="fil7" d="M925 378c7,3 48,10 59,12 42,7 132,29 171,41 154,44 266,87 408,155 55,26 135,67 186,97 30,18 58,35 88,53 30,18 98,63 127,84 44,32 78,55 123,90 32,25 87,68 116,95l29 24c4,3 6,6 9,9 28,22 83,76 110,102 8,8 28,32 36,36 -3,-22 -28,-107 -36,-134 -12,-44 -26,-87 -40,-129 -28,-87 -59,-166 -92,-246 -61,-149 -149,-309 -245,-433 -12,-17 -25,-31 -38,-46 -26,-30 -24,-23 -57,-28 -232,-30 -514,19 -725,106 -75,31 -133,55 -202,95l-24 14c0,0 -1,1 -1,1l-2 2z"/>
   <path class="fil8" d="M215 1317l77 -52c378,-245 826,-373 1274,-410 41,-3 82,-6 123,-7 21,0 43,-1 64,-1 18,-1 47,2 63,0l-112 -64c-37,-21 -76,-42 -116,-62 -79,-39 -160,-79 -245,-113 -87,-33 -172,-66 -266,-91 -91,-24 -206,-51 -308,-51 -12,0 -89,69 -98,77 -25,22 -44,43 -66,65 -9,7 -14,15 -22,22l-40 47c-89,102 -183,256 -237,380 -24,55 -55,132 -72,191 -5,15 -18,54 -19,69z"/>
   <path class="fil9" d="M378 2482c0,-1 21,-105 24,-117 25,-113 59,-220 99,-326 119,-319 314,-622 538,-875 11,-13 22,-26 33,-38l105 -107c-26,4 -60,14 -85,21 -189,53 -357,111 -534,196 -105,50 -240,127 -326,197l-55 47c-5,4 -11,9 -13,15l-8 71c-4,46 -4,79 -4,125 0,210 57,437 139,623 14,30 27,59 41,87 8,15 38,71 46,81z"/>
   <path class="fil10" d="M2559 1732l-1 84c1,-2 13,-22 16,-26l48 -85c102,-179 211,-422 265,-622 24,-91 51,-201 52,-302 1,-23 0,-18 -11,-32l-81 -96c-8,-8 -15,-14 -22,-22l-68 -64c-11,-12 -59,-49 -73,-61 -126,-99 -303,-195 -459,-250 -24,-8 -116,-40 -136,-41l49 73c17,25 32,51 48,77 95,158 172,335 230,515 82,252 143,582 143,852z"/>
   <path class="fil11" d="M1591 2558c1,1 1,1 1,1l227 127c144,75 347,159 507,202 89,23 203,51 301,52 10,0 13,1 20,-4l37 -30c16,-12 33,-27 48,-40l45 -44c23,-22 63,-65 85,-91 13,-16 25,-32 39,-49 52,-66 98,-139 139,-214 22,-39 40,-77 59,-118 19,-40 36,-83 51,-126 8,-22 40,-116 40,-135 -11,6 -26,18 -38,26 -83,58 -196,120 -287,165 -232,116 -530,204 -792,243 -118,18 -235,31 -355,34 -42,2 -86,0 -127,1z"/>
   <path class="fil12" d="M1649 42c210,-10 431,29 626,100 25,10 49,19 74,29 33,13 75,35 107,50l68 37c58,34 102,61 157,101l73 57c5,4 10,7 14,11l82 73c10,9 17,18 27,27 8,8 17,16 26,26l56 62c2,2 3,3 5,6l36 42c12,14 32,43 44,59 26,33 61,88 84,125 26,43 49,87 72,135 206,425 219,932 34,1367 -41,98 -91,191 -145,271 -31,45 -52,76 -87,120 -16,20 -32,37 -47,56 -8,10 -17,19 -25,28l-77 79c-14,14 -32,28 -41,37 -18,19 -50,42 -70,60 -82,70 -225,156 -318,201 -200,95 -414,153 -666,163 -361,14 -745,-102 -1034,-317 -29,-22 -105,-81 -129,-104l-92 -90c-12,-10 -38,-43 -50,-54l-24 -28c-39,-49 -77,-96 -111,-149 -54,-83 -68,-110 -113,-198 -24,-46 -43,-96 -62,-147 -60,-154 -97,-351 -101,-519 -10,-368 86,-682 275,-972 14,-22 27,-41 42,-61 8,-11 14,-20 22,-30 74,-98 161,-187 254,-266 71,-60 131,-100 212,-151 74,-47 204,-107 281,-135 178,-64 326,-92 521,-101zm-1649 1599l0 122c2,4 6,84 7,97 6,77 26,193 45,264 85,316 233,571 451,787 9,8 17,18 25,25 5,5 10,8 14,12 5,5 8,10 13,13l84 72c70,55 135,100 214,146 89,51 184,95 282,130 52,18 104,33 159,47 79,20 182,37 266,43 12,1 92,5 95,7l95 0c4,-2 85,-6 97,-7 200,-15 396,-71 573,-152 108,-49 205,-109 293,-173 33,-24 56,-45 87,-69l82 -73c77,-76 154,-161 215,-251 68,-101 95,-147 151,-263 70,-144 118,-317 141,-480 5,-31 8,-62 11,-93 1,-14 4,-96 6,-100l0 -85c-2,-4 -5,-84 -6,-97 -17,-206 -68,-388 -151,-574 -16,-36 -34,-68 -52,-103 -6,-11 -13,-22 -19,-33 -26,-51 -61,-96 -90,-141l-104 -129c-2,-3 -3,-5 -6,-8 -24,-25 -69,-78 -93,-98 -10,-8 -17,-16 -27,-25l-41 -37c-4,-4 -10,-8 -14,-12 -10,-8 -18,-15 -28,-23l-88 -67c-88,-64 -163,-103 -261,-152 -45,-22 -96,-42 -146,-60 -130,-48 -284,-82 -423,-94 -15,-1 -89,-5 -95,-7l-120 0c-7,3 -80,6 -96,7 -139,14 -291,45 -420,94 -96,36 -194,78 -280,130 -75,45 -103,66 -170,113 -21,15 -49,40 -71,57 -19,15 -37,33 -54,48l-27 25c-166,160 -308,364 -395,579 -36,88 -50,135 -77,230 -15,53 -26,115 -34,171 -4,30 -8,61 -11,92 -1,14 -5,89 -7,95z"/>
   <path class="fil12" d="M2063 1851c5,-21 18,-69 43,-70l111 0c-4,23 -22,67 -42,70l-112 0zm234 -201l-35 0c-11,21 -8,33 -32,33 -22,-1 -43,0 -64,0 -53,0 -73,-9 -94,34 -14,30 -21,63 -33,95 -20,49 -23,40 -90,39l22 -70 26 -1 32 -97 -108 -1 0 -25 -101 0 -40 124 29 0c-3,18 -14,48 -23,58 -9,11 -11,12 -30,12 -13,0 -26,0 -40,0l51 -169 -34 1 -54 168 -101 0 54 -169 -36 1 -56 168 -183 0 -36 110c12,2 42,1 56,1 22,0 92,3 108,-5 17,-8 20,-12 32,-23 5,4 4,19 29,26 14,3 37,2 52,2 20,0 32,2 47,-8 18,-13 16,-25 32,-21 7,1 0,5 9,15 13,15 37,16 56,12 24,-5 46,-25 55,-40 12,-19 21,-42 29,-66 7,-22 17,-50 22,-73l88 0c-7,30 -40,103 -44,141 -2,16 -1,29 12,35 11,5 27,6 41,5 13,-2 24,-10 32,-16 8,-6 17,-16 24,-20 5,10 3,11 11,19 23,20 46,17 73,17 21,0 35,2 52,-7 19,-11 26,-26 38,-23 5,2 1,8 10,17 16,17 37,13 60,13 19,0 28,2 44,-5 52,-21 100,-69 104,-141 -42,0 -38,-2 -41,7 -9,31 -15,28 -40,28 -26,0 -52,0 -79,0l64 -201z"/>
   <path class="fil12" d="M1238 1603l321 0c-2,2 -1,2 -3,3l-5 4c-3,2 -6,3 -9,5l-80 52c-23,15 -19,16 -38,16 -40,-1 -185,2 -211,-1l25 -79zm50 -159l-37 0 -19 58 -210 0 3 -29 -26 0 -29 116c5,3 7,3 11,5 3,2 6,5 9,7 7,4 17,2 27,2 25,0 171,-1 183,1l-116 358 38 0 59 -181 143 0c24,0 22,2 39,-8l262 -163c7,-5 6,-6 8,-16 8,-27 21,-69 25,-92l-387 -1 17 -57z"/>
   <path class="fil3" d="M1213 1682c26,3 171,0 211,1 19,0 15,-1 38,-16l80 -52c3,-2 6,-3 9,-5l5 -4c2,-1 1,-1 3,-3l-321 0 -25 79z"/>
   <path class="fil3" d="M2063 1851l112 0c20,-3 38,-47 42,-70l-111 0c-25,1 -38,49 -43,70z"/>
  </g>
 </g>
</svg>
