<?xml version="1.0" encoding="UTF-8"?>
<!DOCTYPE svg PUBLIC "-//W3C//DTD SVG 1.1//EN" "http://www.w3.org/Graphics/SVG/1.1/DTD/svg11.dtd">
<!-- Creator: CorelDRAW X7 -->
<svg xmlns="http://www.w3.org/2000/svg" xml:space="preserve" width="15.9856cm" height="5.81876cm" version="1.1" style="shape-rendering:geometricPrecision; text-rendering:geometricPrecision; image-rendering:optimizeQuality; fill-rule:evenodd; clip-rule:evenodd"
viewBox="0 0 4659 1696"
 xmlns:xlink="http://www.w3.org/1999/xlink">
 <defs>
  <style type="text/css">
   <![CDATA[
    .fil1 {fill:#E6E7E8}
    .fil0 {fill:#D2D3D5}
    .fil2 {fill:#373435}
    .fil4 {fill:black}
    .fil13 {fill:#007445}
    .fil12 {fill:#014083}
    .fil7 {fill:#0A689E}
    .fil3 {fill:#18BD86}
    .fil10 {fill:#5D236D}
    .fil6 {fill:#913672}
    .fil9 {fill:#E10A15}
    .fil11 {fill:#FC7E41}
    .fil8 {fill:#FFF100}
    .fil5 {fill:white}
    .fil14 {fill:#373435;fill-rule:nonzero}
   ]]>
  </style>
 </defs>
 <rect class="fil0" x="4846" y="-3097" width="6293" height="8144"/>
 <g id="Layer_x0020_1">
  <metadata id="CorelCorpID_0Corel-Layer"/>
  <path class="fil1" d="M848 0c276,0 521,132 675,335l2932 0c112,0 204,92 204,204l0 618c0,112 -92,204 -204,204l-2932 0c-154,203 -399,335 -675,335 -468,0 -848,-380 -848,-848 0,-468 380,-848 848,-848z"/>
  <path class="fil2" d="M2256 655c0,123 231,94 231,157 0,23 -30,41 -67,41l-50 0c-20,0 -43,-10 -55,-26l-64 50c26,24 81,40 119,40l50 0c78,0 141,-47 141,-105 0,-123 -231,-100 -231,-157 0,-22 28,-41 63,-41l49 0c18,0 39,10 50,26l64 -49c-24,-25 -77,-40 -114,-40l-49 0c-76,0 -137,47 -137,104zm434 112l174 0 0 -63 -174 0 0 -90 189 0 34 -63 -228 0c-38,0 -69,29 -69,64l0 237c0,36 31,65 69,65l228 0 -34 -64 -189 0 0 -86zm351 -153l95 0c38,0 68,20 68,61l0 14c0,41 -30,61 -68,61l-51 0 -39 63 57 0 91 104 92 0 -99 -111c53,-16 91,-58 91,-117l0 -14c0,-77 -64,-124 -142,-124l-100 0c-38,0 -69,29 -69,64l0 302 74 0 0 -303zm456 229l-102 -292 -79 0 107 306c13,37 35,65 74,65 38,0 60,-28 73,-65l108 -306 -79 0 -102 292zm227 -292l0 366 74 0 0 -366 -74 0zm202 139c0,-42 31,-76 68,-76l49 0c21,0 43,10 56,26l64 -49c-26,-25 -81,-40 -120,-40l-49 0c-78,0 -142,62 -142,139l0 88c0,77 64,139 142,139l49 0c39,0 94,-16 120,-40l-64 -50c-13,16 -35,26 -56,26l-49 0c-37,0 -68,-34 -68,-75l0 -88zm361 77l174 0 0 -63 -174 0 0 -90 189 0 35 -63 -228 0c-39,0 -70,29 -70,64l0 237c0,36 31,65 70,65l228 0 -35 -64 -189 0 0 -86z"/>
  <path class="fil3" d="M1693 551l0 366 74 0 0 -366 -74 0zm299 366l0 -303 105 0 0 -63 -109 0c-39,0 -70,29 -70,64l0 302 74 0zm-60 -366l-112 0 0 63 73 0 39 -63z"/>
  <g id="_1635408002032">
   <path class="fil4" d="M170 823l0 49c1,2 3,34 3,39 2,31 11,78 18,107 35,127 94,230 182,317 3,3 7,7 10,10 2,2 4,3 6,5 2,2 3,4 5,5l34 29c28,22 54,40 86,59 36,20 74,38 114,52 21,7 41,13 64,19 31,8 73,15 107,18 5,0 37,2 38,2l38 0c2,-1 34,-2 40,-2 80,-6 159,-29 230,-62 44,-19 83,-44 118,-70 14,-9 23,-18 35,-27l33 -30c31,-30 62,-65 87,-101 27,-41 39,-59 61,-106 28,-58 47,-127 57,-193 2,-13 3,-25 4,-38 0,-5 2,-38 2,-40l0 -34c0,-2 -1,-34 -2,-39 -7,-83 -27,-157 -61,-231 -6,-15 -13,-28 -21,-42 -2,-5 -5,-9 -7,-13 -11,-21 -25,-39 -37,-57l-41 -52c-1,-2 -2,-2 -3,-3 -9,-11 -28,-32 -38,-40 -3,-3 -6,-7 -10,-10l-17 -15c-1,-1 -4,-3 -5,-5 -4,-3 -8,-6 -12,-9l-35 -27c-36,-26 -66,-41 -105,-61 -18,-9 -39,-17 -59,-25 -52,-19 -114,-32 -171,-37 -5,-1 -35,-2 -38,-3l-48 0c-3,1 -33,2 -39,3 -56,5 -117,18 -169,37 -39,15 -78,32 -113,53 -30,18 -41,26 -68,46 -9,6 -20,16 -29,23 -8,6 -15,13 -22,19l-11 10c-67,64 -124,146 -159,233 -14,36 -20,54 -31,93 -6,21 -10,46 -13,69 -2,12 -4,24 -5,37 0,5 -2,36 -3,38z"/>
   <path class="fil5" d="M835 179c-79,3 -139,15 -210,41 -31,11 -83,35 -113,54 -33,21 -57,36 -86,61 -38,32 -72,68 -102,107 -3,4 -6,8 -9,12 -6,8 -12,16 -17,24 -76,118 -115,244 -111,392 2,68 17,147 41,210 8,20 15,40 25,59 18,35 24,46 45,79 14,22 29,41 45,60l10 12c5,4 15,17 20,21l37 37c10,9 40,33 52,41 117,87 271,134 416,128 102,-4 188,-27 269,-65 38,-18 95,-53 128,-81 8,-7 21,-17 28,-24 4,-4 11,-10 17,-15l31 -32c3,-4 7,-8 10,-11 6,-8 12,-15 19,-23 14,-18 23,-30 35,-49 22,-32 42,-69 58,-108 75,-176 70,-380 -13,-551 -9,-20 -19,-38 -29,-55 -10,-15 -24,-37 -34,-50 -5,-7 -13,-18 -18,-24l-14 -17c-1,-1 -2,-1 -3,-2l-22 -25c-4,-4 -7,-8 -11,-11 -3,-3 -6,-7 -10,-10l-33 -30c-2,-2 -4,-3 -6,-5l-30 -22c-22,-17 -40,-28 -63,-41l-27 -15c-13,-6 -30,-15 -43,-20 -10,-4 -20,-8 -30,-12 -79,-29 -168,-44 -252,-40z"/>
   <path class="fil6" d="M701 1447l-20 -29c-44,-65 -91,-167 -113,-243 -19,-61 -29,-97 -40,-163 -12,-71 -18,-136 -16,-209 -3,2 -12,20 -14,23 -4,7 -9,15 -13,23 -57,102 -123,255 -127,371 0,7 0,6 5,13 3,4 5,7 8,10 6,7 11,13 17,19 1,2 2,3 4,5 7,8 27,27 35,35 2,2 3,2 5,4l10 9c26,22 54,40 83,59 7,4 15,8 23,13 14,8 31,16 47,23 16,8 34,15 51,21 10,4 46,16 55,16z"/>
   <path class="fil7" d="M1068 1124c5,0 45,-12 53,-14 67,-19 136,-45 199,-75 40,-19 94,-50 128,-77 4,-4 23,-19 27,-24 5,-5 6,-70 6,-80 0,-89 -22,-171 -56,-252 -3,-8 -7,-15 -10,-23 -4,-8 -21,-41 -25,-45 -1,3 -4,19 -4,24 -9,49 -28,110 -45,155 -31,80 -71,155 -118,224 -23,34 -47,67 -73,98l-47 53 -35 36z"/>
   <path class="fil8" d="M543 314c3,1 19,4 24,5 16,3 53,12 69,16 62,18 107,36 164,63 22,10 54,27 75,39 12,7 24,14 35,21 12,8 40,26 52,34 17,13 31,22 49,37 13,10 35,27 47,38l11 10c2,1 3,2 4,3 11,9 34,31 44,41 4,3 12,13 15,15 -1,-9 -11,-43 -14,-54 -5,-18 -11,-35 -16,-52 -12,-35 -24,-67 -38,-99 -24,-60 -60,-125 -98,-175 -5,-6 -10,-12 -16,-18 -10,-12 -9,-10 -23,-12 -93,-12 -207,8 -292,43 -30,12 -53,22 -81,38l-10 6c0,0 0,0 0,0l-1 1z"/>
   <path class="fil9" d="M322 1162c1,-1 9,-42 10,-47 3,-15 7,-30 11,-45 25,-87 58,-164 102,-240 38,-65 93,-144 143,-199l14 -15c1,-1 2,-2 3,-3l11 -12c5,-4 9,-9 14,-14 4,-5 10,-9 14,-15 -9,2 -43,12 -54,15 -84,24 -167,56 -243,98 -7,4 -14,8 -21,12 -8,5 -14,9 -22,13 -17,11 -33,24 -49,36 -3,2 -17,15 -18,17 -2,2 -2,11 -2,14 -13,117 13,236 63,341 4,8 20,39 24,44z"/>
   <path class="fil10" d="M1170 1382l-48 -10c-78,-18 -139,-40 -210,-74 -48,-23 -102,-54 -145,-83 -11,-8 -22,-16 -34,-24 -23,-16 -49,-38 -72,-56l-26 -23c-2,-2 -3,-2 -4,-3 -13,-12 -32,-30 -44,-42l-7 -8c1,9 28,97 31,106 13,39 22,62 37,99 16,42 46,98 70,135 5,8 16,24 21,31 8,10 22,29 31,37 6,4 70,6 80,6 82,-1 153,-17 228,-46 16,-6 32,-13 47,-21 12,-5 23,-11 34,-17 2,-1 9,-5 11,-7z"/>
   <path class="fil11" d="M257 693l31 -21c152,-99 333,-151 513,-166 17,-1 33,-2 50,-2 8,-1 17,-1 26,-1 7,0 19,1 25,0l-45 -26c-15,-8 -31,-17 -47,-25 -32,-15 -64,-32 -99,-45 -35,-13 -69,-27 -107,-37 -37,-10 -83,-20 -124,-20 -5,0 -36,27 -39,31 -10,9 -18,17 -27,26 -3,3 -5,6 -9,9l-16 19c-36,41 -74,103 -95,153 -10,22 -23,53 -30,77 -1,6 -7,22 -7,28z"/>
   <path class="fil12" d="M843 1193l-32 0c2,2 8,5 11,7 54,31 121,65 178,88 58,24 102,38 163,50 23,5 45,8 70,8 2,0 4,-1 5,-3 22,-17 31,-24 52,-45 15,-15 29,-30 42,-46 36,-45 62,-89 87,-144 7,-15 14,-33 20,-50 4,-9 16,-47 17,-55l-30 20c-122,79 -254,127 -400,152 -58,10 -123,18 -183,18z"/>
   <path class="fil13" d="M1201 860l0 34c0,-1 5,-9 6,-11l20 -34c41,-72 85,-170 106,-251 10,-36 21,-81 22,-121 0,-10 -1,-8 -5,-13l-33 -39c-3,-3 -6,-6 -9,-9l-27 -26c-4,-4 -23,-20 -29,-24 -51,-40 -122,-79 -185,-101 -10,-3 -47,-16 -55,-16l20 29c6,10 13,20 19,31 38,64 69,135 93,207 33,102 57,235 57,344z"/>
   <path class="fil4" d="M956 908l9 -29 10 0 13 -39 -44 0 0 -10 -40 0 -17 49 12 0c-1,8 -6,20 -9,24 -4,4 -5,5 -12,5 -5,0 -11,0 -16,0l20 -68 -13 0 -23 68 -40 0 22 -68 -15 0c-2,10 -7,24 -11,34 -1,4 -10,33 -12,34l-73 0 -14 44c3,1 37,0 44,0 20,0 21,1 34,-11 3,2 2,8 12,10 5,2 15,1 21,1 8,0 13,1 19,-3 7,-5 7,-10 13,-8 3,0 -1,6 9,10 14,5 32,-3 39,-15 5,-8 9,-17 12,-27 3,-9 7,-20 9,-30l35 0c-1,5 -3,10 -4,14 -4,11 -12,33 -13,43 -1,7 -1,12 4,14 4,2 11,3 17,2 9,-1 18,-12 23,-14 1,4 0,4 4,7 2,2 4,4 7,5 7,3 13,2 22,2 8,0 14,1 21,-2 8,-4 11,-11 16,-9 2,0 -1,5 9,10 5,2 30,2 36,0 22,-9 41,-28 43,-57 -18,0 -16,-1 -17,2 0,1 0,2 -1,3 -3,11 -8,9 -15,9 -11,0 -21,0 -32,0l26 -81 -14 0c-2,3 -2,6 -4,9 -3,3 -3,4 -9,4 -8,0 -17,0 -25,0 -22,0 -30,-4 -39,13 -6,13 -15,51 -23,54 -3,1 -22,1 -26,1z"/>
   <path class="fil4" d="M667 767l-85 0 1 -12 -10 0 -12 47c2,1 2,1 4,2 7,3 1,4 15,4 10,0 69,-1 74,0l-47 144 16 0 23 -73 58 0c9,0 8,1 15,-3l100 -62c10,-4 8,-6 11,-17 3,-10 7,-21 8,-30l-156 0 8 -23 -16 0 -7 23z"/>
   <path class="fil5" d="M659 840c10,1 69,0 85,0 8,0 6,-1 15,-6l33 -21c1,-1 2,-2 3,-2l2 -2c1,-1 1,0 1,-1l-129 0 -10 32z"/>
   <path class="fil5" d="M1002 908l45 0c8,-2 15,-19 17,-29l-45 0c-10,1 -16,20 -17,29z"/>
  </g>
  <path class="fil14" d="M2132 1153l60 0 0 -22 -60 0 0 -31 65 0 12 -22 -79 0c-13,0 -24,10 -24,22l0 83c0,12 11,22 24,22l79 0 -12 -22 -65 0 0 -30z"/>
  <path id="1" class="fil14" d="M2254 1077c-13,0 -26,10 -26,23l0 105 26 0 0 -105 35 83c6,13 13,23 26,23 13,0 26,-10 26,-23l0 -105 -26 0 0 105 -36 -83c-5,-13 -12,-23 -25,-23z"/>
  <path id="2" class="fil14" d="M2408 1078c-27,0 -49,22 -49,48l0 31c0,26 22,48 49,48l35 0c13,0 24,-10 24,-22l0 -41 -26 0 0 41 -33 0c-13,0 -23,-12 -23,-26l0 -31c0,-14 10,-26 23,-26l17 0c7,0 15,3 19,9l22 -17c-8,-9 -28,-14 -41,-14l-17 0z"/>
  <polygon id="3" class="fil14" points="2490,1078 2490,1205 2516,1205 2516,1078 "/>
  <path id="4" class="fil14" d="M2567 1077c-14,0 -26,10 -26,23l0 105 25 0 0 -105 36 83c5,13 12,23 25,23 14,0 26,-10 26,-23l0 -105 -25 0 0 105 -36 -83c-5,-13 -12,-23 -25,-23z"/>
  <path id="5" class="fil14" d="M2702 1153l60 0 0 -22 -60 0 0 -31 65 0 12 -22 -79 0c-13,0 -24,10 -24,22l0 83c0,12 11,22 24,22l79 0 -12 -22 -65 0 0 -30z"/>
  <path id="6" class="fil14" d="M2824 1100l33 0c13,0 23,7 23,21l0 5c0,14 -10,21 -23,21l-18 0 -14 22 20 0 32 36 32 0 -35 -38c19,-6 32,-21 32,-41l0 -5c0,-27 -22,-43 -49,-43l-35 0c-13,0 -24,10 -24,22l0 105 26 0 0 -105z"/>
  <polygon id="7" class="fil14" points="2928,1078 2928,1205 2954,1205 2954,1078 "/>
  <path id="8" class="fil14" d="M3004 1077c-13,0 -26,10 -26,23l0 105 26 0 0 -105 36 83c5,13 12,23 25,23 13,0 26,-10 26,-23l0 -105 -26 0 0 105 -35 -83c-6,-13 -12,-23 -26,-23z"/>
  <path id="9" class="fil14" d="M3158 1078c-27,0 -49,22 -49,48l0 31c0,26 22,48 49,48l35 0c13,0 24,-10 24,-22l0 -41 -25 0 0 41 -34 0c-13,0 -23,-12 -23,-26l0 -31c0,-14 10,-26 23,-26l17 0c7,0 15,3 19,9l23 -17c-9,-9 -28,-14 -42,-14l-17 0z"/>
  <path id="10" class="fil14" d="M3373 1157c0,14 -10,26 -23,26l-33 0 0 -83 33 0c13,0 23,12 23,26l0 31zm-82 -57l0 105 59 0c27,0 49,-22 49,-48l0 -31c0,-26 -22,-48 -49,-48l-35 0c-13,0 -24,10 -24,22z"/>
  <polygon id="11" class="fil14" points="3420,1078 3420,1205 3446,1205 3446,1078 "/>
  <path id="12" class="fil14" d="M3525 1179l-35 -101 -28 0 38 106c4,13 12,23 25,23 14,0 21,-10 26,-23l37 -106 -27 0 -36 101z"/>
  <polygon id="13" class="fil14" points="3604,1078 3604,1205 3630,1205 3630,1078 "/>
  <path id="14" class="fil14" d="M3650 1114c0,43 80,33 80,55 0,8 -10,14 -23,14l-17 0c-7,0 -15,-3 -20,-9l-22 17c9,9 28,14 42,14l17 0c27,0 49,-16 49,-36 0,-43 -80,-35 -80,-55 0,-8 10,-14 22,-14l17 0c6,0 13,3 17,9l22 -17c-8,-9 -27,-14 -39,-14l-17 0c-27,0 -48,16 -48,36z"/>
  <polygon id="15" class="fil14" points="3777,1078 3777,1205 3803,1205 3803,1078 "/>
  <path id="16" class="fil14" d="M3889 1207c27,0 49,-22 49,-49l0 -33c0,-27 -22,-49 -49,-49l-17 0c-28,0 -50,22 -50,49l0 33c0,27 22,49 50,49l17 0zm-17 -22c-13,0 -24,-12 -24,-27l0 -33c0,-15 11,-27 24,-27l17 0c13,0 23,12 23,27l0 33c0,15 -10,27 -23,27l-17 0z"/>
  <path id="17" class="fil14" d="M3984 1077c-13,0 -26,10 -26,23l0 105 26 0 0 -105 36 83c5,13 12,23 25,23 13,0 26,-10 26,-23l0 -105 -26 0 0 105 -35 -83c-6,-13 -13,-23 -26,-23z"/>
 </g>
</svg>
